<svg width="19" height="18" viewBox="0 0 19 18" fill="none" xmlns="http://www.w3.org/2000/svg">
<path d="M9.48834 11.611C10.9305 11.611 12.0996 10.4419 12.0996 8.99974C12.0996 7.55757 10.9305 6.38846 9.48834 6.38846C8.04617 6.38846 6.87706 7.55757 6.87706 8.99974C6.87706 10.4419 8.04617 11.611 9.48834 11.611Z" stroke="#D64BC2" stroke-width="1.5" stroke-miterlimit="10" stroke-linecap="round" stroke-linejoin="round"/>
<path d="M0.783385 9.76575V8.2338C0.783385 7.32855 1.52325 6.57999 2.4372 6.57999C4.01267 6.57999 4.65679 5.46584 3.8647 4.09927C3.41208 3.31588 3.68191 2.29748 4.474 1.84486L5.97984 0.983137C6.66748 0.574036 7.55531 0.817756 7.96441 1.50539L8.06016 1.67077C8.84354 3.03735 10.1318 3.03735 10.9239 1.67077L11.0196 1.50539C11.4287 0.817756 12.3166 0.574036 13.0042 0.983137L14.51 1.84486C15.3021 2.29748 15.5719 3.31588 15.1193 4.09927C14.3272 5.46584 14.9714 6.57999 16.5468 6.57999C17.4521 6.57999 18.2006 7.31985 18.2006 8.2338V9.76575C18.2006 10.671 17.4608 11.4196 16.5468 11.4196C14.9714 11.4196 14.3272 12.5337 15.1193 13.9003C15.5719 14.6924 15.3021 15.7021 14.51 16.1547L13.0042 17.0164C12.3166 17.4255 11.4287 17.1818 11.0196 16.4942L10.9239 16.3288C10.1405 14.9622 8.85225 14.9622 8.06016 16.3288L7.96441 16.4942C7.55531 17.1818 6.66748 17.4255 5.97984 17.0164L4.474 16.1547C3.68191 15.7021 3.41208 14.6837 3.8647 13.9003C4.65679 12.5337 4.01267 11.4196 2.4372 11.4196C1.52325 11.4196 0.783385 10.671 0.783385 9.76575Z" stroke="#D64BC2" stroke-width="1.5" stroke-miterlimit="10" stroke-linecap="round" stroke-linejoin="round"/>
</svg>
