<svg width="52" height="12" viewBox="0 0 52 12" fill="none" xmlns="http://www.w3.org/2000/svg">
<path d="M37.7978 0.490118C36.5899 0.159765 35.3132 -0.00614686 34.0278 0.00017403C29.8678 0.00017403 26.9319 1.5758 26.9102 3.83345C26.8842 5.49372 28.9989 6.42803 30.5958 6.98471C32.2359 7.55441 32.7841 7.9125 32.7798 8.42523C32.7689 9.20166 31.4689 9.55324 30.2621 9.55324C28.6024 9.55324 27.6924 9.37908 26.2949 8.94285L25.7771 8.76217L25.1899 11.3633C26.1996 11.6807 28.0196 11.9525 29.9024 11.9737C34.3246 11.9737 37.215 10.4094 37.2496 8.00366C37.2843 6.68032 36.1446 5.67602 33.7375 4.84914C32.2771 4.31199 31.3671 3.95227 31.3671 3.40699C31.3671 2.92518 32.1449 2.41082 33.77 2.41082C34.8506 2.39136 35.9247 2.54275 36.9225 2.85519L37.3125 2.98703L37.8997 0.47384L37.7978 0.490118ZM48.5944 0.213406H45.3444C44.3325 0.213406 43.5764 0.420125 43.1322 1.17539L36.8813 11.8109H41.3035L42.1875 10.0692L47.5826 10.0725C47.7147 10.4794 48.1026 11.8109 48.1026 11.8109H52.0004L48.5944 0.213406ZM20.9302 0.115742H25.14L22.5075 11.7197H18.2955L20.9302 0.112487V0.115742ZM10.2289 6.51104L10.6666 8.12248L14.7855 0.213406H19.2467L12.6144 11.7946H8.16407L4.52404 1.98599C4.46533 1.82435 4.32555 1.68608 4.13403 1.60022C2.82487 1.08934 1.43619 0.702772 0 0.449424L0.0541671 0.205267H6.83806C7.75673 0.23131 8.49774 0.449425 8.75124 1.18841L10.2289 6.51592V6.51104ZM43.3965 7.69439L45.0757 4.44872C45.054 4.48128 45.4224 3.7781 45.6347 3.34188L45.9229 4.34292L46.8957 7.69113H43.3965V7.69439Z" fill="#404CB2"/>
</svg>
