<svg width="18" height="18" viewBox="0 0 18 18" fill="none" xmlns="http://www.w3.org/2000/svg">
<path d="M16.6114 7.24219H12.1114C12.0341 7.24219 11.9708 7.30547 11.9708 7.38281V8.22656C11.9708 8.30391 12.0341 8.36719 12.1114 8.36719H16.6114C16.6888 8.36719 16.7521 8.30391 16.7521 8.22656V7.38281C16.7521 7.30547 16.6888 7.24219 16.6114 7.24219ZM14.256 9.63281H12.1114C12.0341 9.63281 11.9708 9.69609 11.9708 9.77344V10.6172C11.9708 10.6945 12.0341 10.7578 12.1114 10.7578H14.256C14.3333 10.7578 14.3966 10.6945 14.3966 10.6172V9.77344C14.3966 9.69609 14.3333 9.63281 14.256 9.63281ZM8.39014 5.66895H7.629C7.52002 5.66895 7.43213 5.75684 7.43213 5.86582V10.2252C7.43213 10.2885 7.46201 10.3465 7.51299 10.3834L10.1304 12.2924C10.2183 12.3557 10.3413 12.3381 10.4046 12.2502L10.8563 11.6332V11.6314C10.9196 11.5436 10.9003 11.4205 10.8124 11.3572L8.58525 9.74707V5.86582C8.58701 5.75684 8.49736 5.66895 8.39014 5.66895Z" fill="#7BBCB0"/>
<path d="M14.1471 11.8458H13.1311C13.0327 11.8458 12.9395 11.8968 12.8868 11.9811C12.6635 12.3344 12.4034 12.6614 12.1046 12.9602C11.5895 13.4753 10.9901 13.8796 10.3239 14.1608C9.63307 14.4526 8.90006 14.6003 8.1442 14.6003C7.38658 14.6003 6.65358 14.4526 5.96451 14.1608C5.2983 13.8796 4.69889 13.4753 4.18385 12.9602C3.66881 12.4452 3.26451 11.8458 2.98326 11.1796C2.69147 10.4905 2.54381 9.75749 2.54381 8.99988C2.54381 8.24226 2.69147 7.51101 2.98326 6.82019C3.26451 6.15398 3.66881 5.55456 4.18385 5.03953C4.69889 4.52449 5.2983 4.12019 5.96451 3.83894C6.65358 3.54714 7.38834 3.39949 8.1442 3.39949C8.90182 3.39949 9.63483 3.54714 10.3239 3.83894C10.9901 4.12019 11.5895 4.52449 12.1046 5.03953C12.4034 5.33835 12.6635 5.66531 12.8868 6.01863C12.9395 6.103 13.0327 6.15398 13.1311 6.15398H14.1471C14.2684 6.15398 14.3458 6.02742 14.2913 5.92019C13.1452 3.64031 10.8214 2.15847 8.22682 2.12859C4.42819 2.08113 1.27291 5.1907 1.26588 8.98582C1.25885 12.788 4.3403 15.8729 8.14244 15.8729C10.7704 15.8729 13.1329 14.3858 14.2913 12.0796C14.3458 11.9723 14.2667 11.8458 14.1471 11.8458Z" fill="#7BBCB0"/>
</svg>
