<svg width="20" height="20" viewBox="0 0 20 20" fill="none" xmlns="http://www.w3.org/2000/svg">
<path d="M16.6667 4.99996H14.1667V3.33329C14.1667 2.40829 13.425 1.66663 12.5 1.66663H7.5C6.57501 1.66663 5.83334 2.40829 5.83334 3.33329V4.99996H3.33334C2.40834 4.99996 1.66667 5.74163 1.66667 6.66663V15.8333C1.66667 16.7583 2.40834 17.5 3.33334 17.5H16.6667C17.5917 17.5 18.3333 16.7583 18.3333 15.8333V6.66663C18.3333 5.74163 17.5917 4.99996 16.6667 4.99996ZM7.5 3.33329H12.5V4.99996H7.5V3.33329ZM16.6667 15.8333H3.33334V14.1666H16.6667V15.8333ZM16.6667 11.6666H3.33334V6.66663H5.83334V8.33329H7.5V6.66663H12.5V8.33329H14.1667V6.66663H16.6667V11.6666Z" fill="#FC3131"/>
</svg>
