<svg width="284" height="51" viewBox="0 0 284 51" fill="none" xmlns="http://www.w3.org/2000/svg">
<path d="M181.084 0.885578C160.861 1.67825 140.651 3.00776 120.475 4.8741C102.166 5.28512 83.8533 5.69613 65.5442 6.10715C45.4538 6.5601 25.3634 7.00886 5.27631 7.46182C3.33283 7.50376 0.323243 9.31138 0.0252646 12.0417C-0.302512 15.053 2.63754 15.5563 4.29298 15.5227C17.3478 15.2292 30.4025 14.9356 43.4573 14.642C38.0242 15.5185 32.5976 16.4287 27.1711 17.3807C25.2905 17.712 22.665 18.8276 22.0658 21.4321C21.5294 23.7556 23.2047 25.4039 24.9826 25.4458C55.1315 26.1001 85.2836 26.7585 115.432 27.4128C121.849 27.5512 128.265 27.6938 134.682 27.8322C125.451 29.1114 116.234 30.5835 107.043 32.2485C92.6304 34.8656 78.2778 37.9692 63.988 41.5048C62.4452 41.8864 60.2567 43.5976 60.0216 45.7911C59.7932 47.8881 61.6175 49.2595 63.0809 49.2763C97.3683 49.6537 131.656 50.0354 165.943 50.4129C175.611 50.5177 185.275 50.6268 194.943 50.7316C197.158 50.7568 199.999 49.9557 201.115 47.2002C202.111 44.7342 200.244 42.6833 198.34 42.6623C165.334 42.2974 132.328 41.9325 99.3217 41.5677C100.242 41.3915 101.159 41.2112 102.08 41.0392C114.552 38.6989 127.067 36.7152 139.608 35.0921C164.705 31.8459 189.914 30.0383 215.139 29.6818C216.255 29.665 217.384 29.6566 218.51 29.6482C231.296 29.925 244.08 30.206 256.866 30.4828C259.078 30.529 261.929 29.6902 263.038 26.9515C264.058 24.4351 262.151 22.51 260.263 22.4135C247.215 21.7509 234.154 21.4657 221.096 21.5621C204.002 21.1889 186.908 20.8198 169.814 20.4465C139.665 19.7923 109.513 19.1338 79.3638 18.4795C76.9336 18.425 74.5001 18.3747 72.0699 18.3202C87.8561 16.1938 103.669 14.3945 119.501 12.9308C152.508 12.1885 185.517 11.4503 218.523 10.708C238.614 10.255 258.704 9.80628 278.791 9.35332C280.635 9.31138 283.343 7.70926 283.896 5.30189C284.439 2.94904 282.751 1.37209 280.979 1.28821C247.695 -0.280362 214.371 -0.418765 181.084 0.885578Z" fill="#FFDA32"/>
</svg>
