<svg width="30" height="30" viewBox="0 0 30 30" fill="none" xmlns="http://www.w3.org/2000/svg">
<g clip-path="url(#clip0_79_1293)">
<path d="M14.9414 27.334C16.0093 27.334 16.875 26.4683 16.875 25.4004C16.875 24.3325 16.0093 23.4668 14.9414 23.4668C13.8735 23.4668 13.0078 24.3325 13.0078 25.4004C13.0078 26.4683 13.8735 27.334 14.9414 27.334Z" fill="black"/>
<path d="M29.6854 9.07405C25.834 4.94185 20.6188 2.66607 14.9998 2.66602C9.38123 2.66607 4.16599 4.94185 0.314572 9.07405C-0.126638 9.54749 -0.100564 10.289 0.372872 10.7303C0.846368 11.1715 1.58787 11.1455 2.02914 10.672C5.43226 7.02069 10.0387 5.00982 15.0002 5.00976C19.9613 5.00982 24.5677 7.02069 27.9708 10.672C28.2016 10.9196 28.5146 11.0449 28.8283 11.0449C29.1145 11.0449 29.4013 10.9407 29.6271 10.7303C30.1005 10.289 30.1267 9.54749 29.6854 9.07405Z" fill="black"/>
<path d="M25.3825 13.9137C22.5357 11.0453 18.8484 9.4657 15 9.46582C11.1507 9.46588 7.46337 11.0456 4.61736 13.9138C4.16151 14.3733 4.16438 15.1152 4.62381 15.5711C5.08324 16.027 5.82521 16.0241 6.28107 15.5646C8.6837 13.1432 11.7801 11.8096 15 11.8096C18.219 11.8094 21.3154 13.1431 23.719 15.5648C23.9481 15.7956 24.2493 15.9111 24.5507 15.9111C24.8491 15.9111 25.1477 15.7978 25.3763 15.571C25.8356 15.1151 25.8385 14.3731 25.3825 13.9137Z" fill="black"/>
<path d="M20.6929 18.7671C19.1683 17.2566 16.9829 16.3184 14.9894 16.3184C14.9892 16.3184 14.9888 16.3184 14.9885 16.3184H14.9041C14.9038 16.3184 14.9036 16.3184 14.9032 16.3184C12.9097 16.3184 10.7242 17.2567 9.1996 18.7671C8.73988 19.2226 8.73642 19.9646 9.19193 20.4244C9.42109 20.6556 9.72273 20.7715 10.0244 20.7715C10.3225 20.7715 10.6207 20.6584 10.8491 20.4321C11.9345 19.3568 13.5257 18.6621 14.9033 18.6621C14.9035 18.6621 14.9038 18.6621 14.9039 18.6621H14.9887C14.989 18.6621 14.989 18.6621 14.9892 18.6621C16.3667 18.6621 17.9581 19.3568 19.0433 20.4321C19.503 20.8875 20.2451 20.8843 20.7006 20.4244C21.1561 19.9646 21.1527 19.2226 20.6929 18.7671Z" fill="black"/>
</g>
<defs>
<clipPath id="clip0_79_1293">
<rect width="30" height="30" fill="white"/>
</clipPath>
</defs>
</svg>
