<svg width="190" height="40" viewBox="0 0 190 40" fill="none" xmlns="http://www.w3.org/2000/svg">
<circle cx="20" cy="20" r="20" fill="#4B69B1"/>
<path d="M17.7165 29.091V20.5596H15.4546V17.4878H17.7165V14.8642C17.7165 12.8025 19.0527 10.9092 22.1314 10.9092C23.378 10.9092 24.2997 11.0284 24.2997 11.0284L24.2271 13.8968C24.2271 13.8968 23.287 13.8877 22.2612 13.8877C21.151 13.8877 20.9731 14.398 20.9731 15.2449V17.4878H24.3153L24.1699 20.5596H20.9731V29.091H17.7165Z" fill="white"/>
<circle cx="70" cy="20" r="20" fill="#37B1E2"/>
<path d="M79.091 14.4914C78.4224 14.7813 77.6947 14.99 76.9453 15.0712C77.7234 14.6065 78.3061 13.8724 78.5841 13.0065C77.8539 13.4432 77.054 13.7493 76.2198 13.9115C75.8712 13.5368 75.4495 13.2383 74.9811 13.0346C74.5127 12.8309 74.0076 12.7264 73.4973 12.7275C71.4324 12.7275 69.7718 14.4101 69.7718 16.4748C69.7718 16.7648 69.8067 17.0547 69.8635 17.3337C66.7717 17.1711 64.0141 15.6863 62.1809 13.4129C61.8468 13.9864 61.6718 14.6395 61.6739 15.3041C61.6739 16.6044 62.3316 17.751 63.3346 18.4253C62.7435 18.4019 62.1663 18.2386 61.6499 17.9487V17.9948C61.6499 19.8157 62.9304 21.3247 64.6369 21.6718C64.3165 21.7554 63.9868 21.7982 63.6558 21.7992C63.4132 21.7992 63.1838 21.775 62.9522 21.7421C63.4242 23.2269 64.7986 24.3054 66.4352 24.3406C65.1547 25.3488 63.5509 25.9418 61.8094 25.9418C61.497 25.9418 61.2085 25.9308 60.9092 25.8957C62.5611 26.961 64.5211 27.576 66.6318 27.576C73.4842 27.576 77.2337 21.8695 77.2337 16.9163C77.2337 16.7538 77.2337 16.5912 77.2228 16.4287C77.9482 15.8949 78.5841 15.2338 79.091 14.4914Z" fill="white"/>
<circle cx="120" cy="20" r="20" fill="#C23772"/>
<path d="M119.998 16.9685C118.328 16.9685 116.966 18.3308 116.966 20.0001C116.966 21.6694 118.328 23.0317 119.998 23.0317C121.667 23.0317 123.029 21.6694 123.029 20.0001C123.029 18.3308 121.667 16.9685 119.998 16.9685ZM129.09 20.0001C129.09 18.7447 129.101 17.5007 129.031 16.2476C128.96 14.792 128.628 13.5002 127.564 12.4359C126.497 11.3693 125.208 11.0395 123.752 10.969C122.497 10.8985 121.253 10.9099 120 10.9099C118.745 10.9099 117.501 10.8985 116.247 10.969C114.792 11.0395 113.5 11.3715 112.436 12.4359C111.369 13.5025 111.04 14.792 110.969 16.2476C110.899 17.5029 110.91 18.747 110.91 20.0001C110.91 21.2532 110.899 22.4995 110.969 23.7526C111.04 25.2082 111.372 26.4999 112.436 27.5643C113.502 28.6309 114.792 28.9607 116.247 29.0312C117.503 29.1017 118.747 29.0903 120 29.0903C121.255 29.0903 122.499 29.1017 123.752 29.0312C125.208 28.9607 126.5 28.6286 127.564 27.5643C128.631 26.4977 128.96 25.2082 129.031 23.7526C129.104 22.4995 129.09 21.2555 129.09 20.0001ZM119.998 24.6646C117.416 24.6646 115.333 22.5814 115.333 20.0001C115.333 17.4188 117.416 15.3356 119.998 15.3356C122.579 15.3356 124.662 17.4188 124.662 20.0001C124.662 22.5814 122.579 24.6646 119.998 24.6646ZM124.853 16.2339C124.25 16.2339 123.764 15.7472 123.764 15.1445C123.764 14.5419 124.25 14.0552 124.853 14.0552C125.456 14.0552 125.942 14.5419 125.942 15.1445C125.943 15.2876 125.915 15.4294 125.86 15.5616C125.805 15.6939 125.725 15.814 125.624 15.9152C125.523 16.0164 125.402 16.0967 125.27 16.1513C125.138 16.206 124.996 16.2341 124.853 16.2339Z" fill="white"/>
<circle cx="170" cy="20" r="20" fill="#E83F3A"/>
<path d="M162.727 17.4312C162.727 16.6451 162.865 15.9025 163.136 15.2094C163.394 14.5362 163.779 13.9183 164.268 13.3887C164.757 12.866 165.316 12.414 165.929 12.0459C166.559 11.6651 167.24 11.3778 167.952 11.1931C168.673 11.0039 169.415 10.9085 170.16 10.9092C171.311 10.9092 172.382 11.1527 173.375 11.6377C174.355 12.1138 175.189 12.8445 175.791 13.7534C176.411 14.6779 176.719 15.7237 176.719 16.8896C176.719 17.5888 176.65 18.2728 176.51 18.9417C176.372 19.6102 176.153 20.2593 175.857 20.8746C175.576 21.4701 175.207 22.0207 174.764 22.5084C174.319 22.9882 173.779 23.3714 173.18 23.6339C172.529 23.9193 171.824 24.0629 171.114 24.0553C170.619 24.0553 170.126 23.9391 169.639 23.7057C169.152 23.4733 168.803 23.154 168.593 22.7448C168.519 23.0287 168.418 23.4389 168.283 23.9754C168.154 24.5109 168.067 24.8565 168.029 25.0131C167.988 25.1687 167.914 25.4284 167.805 25.7881C167.731 26.0541 167.636 26.3139 167.521 26.565L167.173 27.246C167.023 27.5383 166.855 27.821 166.67 28.0927C166.487 28.3575 166.261 28.6737 165.991 29.0374L165.84 29.091L165.74 28.9819C165.632 27.8371 165.577 27.1521 165.577 26.9257C165.577 26.2559 165.656 25.5041 165.814 24.6696C165.969 23.836 166.213 22.7882 166.542 21.5283C166.87 20.2694 167.058 19.5287 167.108 19.3095C166.877 18.8376 166.76 18.2213 166.76 17.4635C166.76 16.8583 166.949 16.2915 167.328 15.758C167.708 15.2265 168.187 14.9608 168.769 14.9608C169.215 14.9608 169.561 15.1083 169.808 15.4044C170.057 15.6994 170.178 16.0712 170.178 16.5249C170.178 17.0058 170.018 17.702 169.697 18.6123C169.376 19.5237 169.216 20.2037 169.216 20.6553C169.216 21.113 169.38 21.496 169.707 21.796C170.03 22.0963 170.457 22.259 170.898 22.2497C171.298 22.2497 171.669 22.1588 172.014 21.9759C172.353 21.7984 172.646 21.5449 172.872 21.2353C173.362 20.5627 173.711 19.798 173.899 18.9872C173.996 18.5608 174.071 18.1556 174.117 17.7747C174.167 17.3918 174.188 17.0301 174.188 16.6865C174.188 15.4266 173.788 14.4445 172.993 13.7413C172.194 13.0381 171.153 12.6885 169.873 12.6885C168.417 12.6885 167.199 13.1593 166.224 14.104C165.248 15.0457 164.757 16.243 164.757 17.6949C164.757 18.0152 164.806 18.3244 164.898 18.6234C164.988 18.9215 165.086 19.1589 165.192 19.3348C165.297 19.5075 165.396 19.6763 165.486 19.8319C165.577 19.9875 165.624 20.0986 165.624 20.1653C165.624 20.3694 165.571 20.6351 165.462 20.9635C165.35 21.2919 165.218 21.4555 165.058 21.4555C165.043 21.4555 164.981 21.4444 164.871 21.4212C164.493 21.3084 164.152 21.0975 163.882 20.8099C163.596 20.5119 163.37 20.1612 163.216 19.7773C163.064 19.3947 162.945 18.9995 162.861 18.5962C162.77 18.2145 162.725 17.8234 162.727 17.4312Z" fill="white"/>
</svg>
