<svg width="467" height="944" viewBox="0 0 467 944" fill="none" xmlns="http://www.w3.org/2000/svg">
<rect x="299.519" y="104.777" width="30.4899" height="5.28136" transform="rotate(-153 299.519 104.777)" fill="#ECB43C"/>
<rect x="82.1032" y="328.834" width="11.485" height="9.2824" transform="rotate(30 82.1032 328.834)" fill="#FDA5A5" fill-opacity="0.85"/>
<rect x="335.528" y="592.903" width="17.4865" height="8.28214" transform="rotate(-25 335.528 592.903)" fill="#56B8A5" fill-opacity="0.75"/>
<rect x="416.549" y="272.82" width="15.486" height="7.28188" transform="rotate(-27 416.549 272.82)" fill="#56B8A5" fill-opacity="0.85"/>
<rect x="89.4645" y="633.913" width="14.4857" height="8.28214" transform="rotate(-51 89.4645 633.913)" fill="#3DBD96" fill-opacity="0.35"/>
<rect x="93.4656" y="394.852" width="8.48419" height="4.28111" transform="rotate(-168 93.4656 394.852)" fill="#ECB43C" fill-opacity="0.35"/>
<rect x="16.4457" y="403.854" width="16.4863" height="4.28111" transform="rotate(-176 16.4457 403.854)" fill="#56B8A5"/>
<rect x="154.764" y="298.523" width="14.4857" height="8.28214" transform="rotate(-148 154.764 298.523)" fill="#56B8A5" fill-opacity="0.35"/>
<rect x="282.514" y="34.7585" width="37.4917" height="5.28136" transform="rotate(6 282.514 34.7585)" fill="#56B8A5" fill-opacity="0.9"/>
<rect x="117.472" y="12.7528" width="9.48445" height="7.28188" transform="rotate(-131 117.472 12.7528)" fill="#3DBD96" fill-opacity="0.65"/>
<rect x="387.542" y="412.856" width="22.4878" height="8.28214" transform="rotate(-159 387.542 412.856)" fill="#3DBD96"/>
<rect x="138.477" y="98.775" width="25.4886" height="4.28111" transform="rotate(-171 138.477 98.775)" fill="#ECB43C"/>
<rect x="134.476" y="705.932" width="33.4907" height="7.28188" transform="rotate(-19 134.476 705.932)" fill="#56B8A5" fill-opacity="0.45"/>
<rect x="402.545" y="572.898" width="29.4896" height="4.28111" transform="rotate(-178 402.545 572.898)" fill="#FDA5A5" fill-opacity="0.65"/>
<rect x="372.015" y="140.632" width="32.4904" height="4.28111" transform="rotate(-179 372.015 140.632)" fill="#ECB43C" fill-opacity="0.85"/>
<rect x="110.9" y="280.79" width="36.4914" height="4.28111" transform="rotate(158 110.9 280.79)" fill="#3DBD96" fill-opacity="0.9"/>
<rect x="412.548" y="729.938" width="16.4863" height="8.28214" transform="rotate(-136 412.548 729.938)" fill="#FDA5A5" fill-opacity="0.85"/>
<rect x="31.4495" y="137.785" width="16.4863" height="7.28188" transform="rotate(90 31.4495 137.785)" fill="#3DBD96" fill-opacity="0.9"/>
<rect x="345.531" y="608.907" width="31.4901" height="6.28162" transform="rotate(-136 345.531 608.907)" fill="#56B8A5" fill-opacity="0.75"/>
<rect x="30.4493" y="840.967" width="21.4876" height="6.28162" transform="rotate(39 30.4493 840.967)" fill="#56B8A5" fill-opacity="0.6"/>
<rect x="381.54" y="787.953" width="15.486" height="6.28162" transform="rotate(96 381.54 787.953)" fill="#3DBD96" fill-opacity="0.85"/>
<rect x="207.493" y="309.83" width="11.485" height="7.28188" transform="rotate(74 207.493 309.83)" fill="#ECB43C" fill-opacity="0.75"/>
<rect x="95.4661" y="28.7569" width="29.4896" height="6.28162" transform="rotate(133 95.4661 28.7569)" fill="#ECB43C" fill-opacity="0.85"/>
<rect x="224.499" y="595.372" width="23.4881" height="8.28214" transform="rotate(-35 224.499 595.372)" fill="#FDA5A5" fill-opacity="0.85"/>
<rect x="391.543" y="273.82" width="36.4914" height="4.28111" transform="rotate(62 391.543 273.82)" fill="#56B8A5" fill-opacity="0.75"/>
<rect x="359.534" y="921.988" width="10.4847" height="6.28162" transform="rotate(-59 359.534 921.988)" fill="#FDA5A5" fill-opacity="0.35"/>
<rect x="128.475" y="899.982" width="8.48419" height="9.2824" transform="rotate(-4 128.475 899.982)" fill="#ECB43C" fill-opacity="0.6"/>
<rect x="377.539" y="567.896" width="17.4865" height="7.28188" transform="rotate(-91 377.539 567.896)" fill="#FDA5A5"/>
<rect x="420.55" y="287.824" width="27.4891" height="8.28214" transform="rotate(-68 420.55 287.824)" fill="#56B8A5" fill-opacity="0.35"/>
<rect x="27.4485" y="558.894" width="8.48419" height="8.28214" transform="rotate(-52 27.4485 558.894)" fill="#3DBD96" fill-opacity="0.6"/>
<rect x="461.561" y="413.856" width="28.4894" height="6.28162" transform="rotate(-133 461.561 413.856)" fill="#3DBD96" fill-opacity="0.6"/>
<rect x="416.549" y="340.838" width="29.4896" height="6.28162" transform="rotate(109 416.549 340.838)" fill="#ECB43C" fill-opacity="0.85"/>
<rect x="430.553" y="112.779" width="14.4857" height="4.28111" transform="rotate(99 430.553 112.779)" fill="#ECB43C" fill-opacity="0.45"/>
<rect x="200.493" y="6.75126" width="6.48368" height="5.28136" transform="rotate(-93 200.493 6.75126)" fill="#56B8A5" fill-opacity="0.75"/>
<rect x="338.8" y="286.282" width="36.4914" height="4.28111" transform="rotate(-149 338.8 286.282)" fill="#ECB43C" fill-opacity="0.85"/>
<rect x="422.551" y="588.902" width="33.4907" height="4.28111" transform="rotate(-115 422.551 588.902)" fill="#FDA5A5" fill-opacity="0.75"/>
<rect x="217.498" y="758.946" width="6.48368" height="6.28162" transform="rotate(113 217.498 758.946)" fill="#FDA5A5" fill-opacity="0.45"/>
<rect x="39.4516" y="717.935" width="35.4912" height="7.28188" transform="rotate(57 39.4516 717.935)" fill="#FDA5A5" fill-opacity="0.45"/>
<rect x="63.4578" y="155.79" width="36.4914" height="8.28214" transform="rotate(57 63.4578 155.79)" fill="#ECB43C" fill-opacity="0.85"/>
<rect x="133.198" y="229.438" width="7.48393" height="8.28214" transform="rotate(116 133.198 229.438)" fill="#3DBD96" fill-opacity="0.65"/>
<rect x="25.448" y="263.818" width="20.4873" height="4.28111" transform="rotate(-19 25.448 263.818)" fill="#56B8A5" fill-opacity="0.9"/>
<rect x="40.4519" y="386.849" width="25.4886" height="7.28188" transform="rotate(7 40.4519 386.849)" fill="#3DBD96" fill-opacity="0.6"/>
<rect x="325.526" y="22.7554" width="10.4847" height="9.2824" transform="rotate(170 325.526 22.7554)" fill="#ECB43C" fill-opacity="0.75"/>
<rect x="148.48" y="157.79" width="10.4847" height="6.28162" transform="rotate(-129 148.48 157.79)" fill="#56B8A5" fill-opacity="0.35"/>
<rect x="331.527" y="183.797" width="18.4868" height="8.28214" transform="rotate(92 331.527 183.797)" fill="#FDA5A5" fill-opacity="0.85"/>
<rect x="91.465" y="791.954" width="31.4901" height="8.28214" transform="rotate(100 91.465 791.954)" fill="#56B8A5" fill-opacity="0.65"/>
<rect x="248.506" y="635.914" width="15.486" height="8.28214" transform="rotate(120 248.506 635.914)" fill="#3DBD96" fill-opacity="0.85"/>
<rect x="110.47" y="926.989" width="24.4883" height="8.28214" transform="rotate(136 110.47 926.989)" fill="#ECB43C" fill-opacity="0.75"/>
<rect x="42.4524" y="186.798" width="27.4891" height="4.28111" transform="rotate(-27 42.4524 186.798)" fill="#56B8A5"/>
<rect x="285.515" y="169.477" width="8.48419" height="9.2824" transform="rotate(-52 285.515 169.477)" fill="#3DBD96" fill-opacity="0.35"/>
<rect x="337.529" y="203.802" width="32.4904" height="6.28162" transform="rotate(71 337.529 203.802)" fill="#ECB43C"/>
<rect x="373.538" y="402.854" width="20.4873" height="5.28136" transform="rotate(66 373.538 402.854)" fill="#ECB43C" fill-opacity="0.6"/>
<rect x="105.469" y="772.949" width="21.4876" height="5.28136" transform="rotate(-16 105.469 772.949)" fill="#FDA5A5" fill-opacity="0.6"/>
<rect x="391.543" y="25.7562" width="35.4912" height="7.28188" transform="rotate(52 391.543 25.7562)" fill="#FDA5A5" fill-opacity="0.45"/>
<circle cx="77.2764" cy="675.739" r="2.81573" fill="#FDA5A5"/>
<circle cx="217.313" cy="126.597" r="6.81676" fill="#3DBD96" fill-opacity="0.65"/>
<circle cx="92.2803" cy="543.705" r="6.81676" fill="#3DBD96" fill-opacity="0.35"/>
<circle cx="44.2678" cy="223.622" r="5.8165" fill="#FDA5A5"/>
<circle cx="328.841" cy="198.116" r="6.31663" fill="#FDA5A5" fill-opacity="0.75"/>
<circle cx="341.845" cy="600.22" r="2.3156" fill="#ECB43C" fill-opacity="0.45"/>
<circle cx="435.869" cy="786.268" r="3.31586" fill="#56B8A5" fill-opacity="0.6"/>
<circle cx="262.324" cy="331.65" r="2.81573" fill="#56B8A5" fill-opacity="0.6"/>
<circle cx="244.32" cy="781.766" r="3.81599" fill="#FDA5A5" fill-opacity="0.9"/>
<circle cx="116.286" cy="893.795" r="4.81624" fill="#ECB43C" fill-opacity="0.9"/>
<circle cx="139.292" cy="740.756" r="4.81624" fill="#ECB43C" fill-opacity="0.9"/>
<circle cx="63.2728" cy="369.66" r="4.81624" fill="#56B8A5" fill-opacity="0.6"/>
<circle cx="347.846" cy="56.079" r="5.31637" fill="#ECB43C" fill-opacity="0.6"/>
<circle cx="139.292" cy="450.681" r="3.81599" fill="#FDA5A5" fill-opacity="0.35"/>
<circle cx="384.856" cy="393.166" r="3.31586" fill="#56B8A5" fill-opacity="0.85"/>
<circle cx="384.856" cy="175.11" r="3.31586" fill="#3DBD96" fill-opacity="0.75"/>
<circle cx="48.2689" cy="287.639" r="5.8165" fill="#56B8A5" fill-opacity="0.65"/>
<circle cx="92.2803" cy="801.772" r="5.8165" fill="#FDA5A5" fill-opacity="0.6"/>
<circle cx="313.337" cy="744.757" r="6.81676" fill="#3DBD96" fill-opacity="0.9"/>
<circle cx="125.289" cy="851.785" r="6.81676" fill="#3DBD96" fill-opacity="0.6"/>
<circle cx="394.358" cy="531.702" r="2.81573" fill="#56B8A5" fill-opacity="0.9"/>
<circle cx="170.801" cy="9.06685" r="3.31586" fill="#3DBD96" fill-opacity="0.9"/>
<circle cx="67.2738" cy="931.805" r="2.81573" fill="#3DBD96" fill-opacity="0.75"/>
<circle cx="457.375" cy="502.694" r="3.81599" fill="#ECB43C" fill-opacity="0.75"/>
<circle cx="356.849" cy="114.094" r="2.3156" fill="#FDA5A5" fill-opacity="0.65"/>
<circle cx="68.274" cy="80.5853" r="6.81676" fill="#ECB43C" fill-opacity="0.85"/>
<circle cx="157.797" cy="160.106" r="3.31586" fill="#ECB43C" fill-opacity="0.6"/>
<circle cx="277.828" cy="258.131" r="2.3156" fill="#ECB43C" fill-opacity="0.45"/>
<circle cx="418.865" cy="526.2" r="3.31586" fill="#3DBD96" fill-opacity="0.45"/>
<circle cx="304.335" cy="927.804" r="5.8165" fill="#FDA5A5" fill-opacity="0.9"/>
<circle cx="184.804" cy="154.104" r="3.31586" fill="#FDA5A5"/>
<circle cx="145.794" cy="484.19" r="6.31663" fill="#ECB43C" fill-opacity="0.75"/>
<circle cx="274.327" cy="884.793" r="6.81676" fill="#FDA5A5" fill-opacity="0.45"/>
<circle cx="290.832" cy="449.181" r="6.31663" fill="#56B8A5" fill-opacity="0.65"/>
<circle cx="150.795" cy="642.23" r="6.31663" fill="#56B8A5" fill-opacity="0.35"/>
<circle cx="103.283" cy="733.754" r="4.81624" fill="#FDA5A5" fill-opacity="0.65"/>
<circle cx="330.842" cy="920.302" r="3.31586" fill="#ECB43C" fill-opacity="0.9"/>
<circle cx="196.807" cy="563.21" r="4.31612" fill="#ECB43C" fill-opacity="0.35"/>
<circle cx="454.874" cy="195.115" r="4.31612" fill="#3DBD96" fill-opacity="0.85"/>
<circle cx="192.306" cy="459.683" r="6.81676" fill="#FDA5A5" fill-opacity="0.65"/>
<circle cx="445.371" cy="913.801" r="3.81599" fill="#FDA5A5" fill-opacity="0.9"/>
<circle cx="270.826" cy="137.1" r="5.31637" fill="#FDA5A5" fill-opacity="0.65"/>
<circle cx="402.36" cy="614.723" r="5.8165" fill="#FDA5A5" fill-opacity="0.75"/>
<circle cx="438.37" cy="479.688" r="5.8165" fill="#ECB43C" fill-opacity="0.9"/>
<circle cx="62.7726" cy="438.178" r="4.31612" fill="#3DBD96" fill-opacity="0.45"/>
<circle cx="130.29" cy="678.74" r="2.81573" fill="#3DBD96" fill-opacity="0.9"/>
<circle cx="190.306" cy="546.706" r="4.81624" fill="#56B8A5" fill-opacity="0.65"/>
<circle cx="194.807" cy="48.0769" r="2.3156" fill="#56B8A5" fill-opacity="0.85"/>
<circle cx="334.343" cy="20.5698" r="6.81676" fill="#3DBD96" fill-opacity="0.35"/>
<circle cx="268.326" cy="893.795" r="5.8165" fill="#3DBD96" fill-opacity="0.6"/>
<circle cx="130.29" cy="177.61" r="2.81573" fill="#ECB43C" fill-opacity="0.45"/>
<circle cx="129.79" cy="14.0681" r="4.31612" fill="#FDA5A5" fill-opacity="0.35"/>
<circle cx="38.2663" cy="429.676" r="5.8165" fill="#FDA5A5" fill-opacity="0.75"/>
<circle cx="310.837" cy="812.274" r="6.31663" fill="#3DBD96" fill-opacity="0.75"/>
</svg>
