<svg width="218" height="44" viewBox="0 0 218 44" fill="none" xmlns="http://www.w3.org/2000/svg">
<circle cx="22" cy="22" r="22" fill="#DDFFE7"/>
<path d="M31.7182 17.6667H28.5332C27.1573 17.6667 26.334 16.8433 26.334 15.4675V12.2825C26.334 10.9067 27.1573 10.0833 28.5332 10.0833H31.7182C33.094 10.0833 33.9173 10.9067 33.9173 12.2825V15.4675C33.9173 16.8433 33.094 17.6667 31.7182 17.6667ZM31.9565 14.0808C31.8265 13.9508 31.6532 13.8858 31.4798 13.8858C31.3065 13.8858 31.1332 13.9508 31.0032 14.0808L30.8082 14.2758V11.8492C30.8082 11.47 30.5048 11.1667 30.1257 11.1667C29.7465 11.1667 29.4432 11.47 29.4432 11.8492V14.2758L29.2482 14.0808C28.9882 13.8208 28.5548 13.8208 28.2948 14.0808C28.0348 14.3408 28.0348 14.7742 28.2948 15.0342L29.649 16.3883C29.7032 16.4425 29.779 16.4858 29.8548 16.5183C29.8765 16.5292 29.8982 16.5292 29.9198 16.54C29.974 16.5617 30.0282 16.5725 30.0932 16.5725C30.1148 16.5725 30.1365 16.5725 30.1582 16.5725C30.234 16.5725 30.299 16.5617 30.3748 16.5292C30.3857 16.5292 30.3857 16.5292 30.3965 16.5292C30.4723 16.4967 30.5373 16.4533 30.5915 16.3992C30.6023 16.3883 30.6023 16.3883 30.6132 16.3883L31.9673 15.0342C32.2273 14.7742 32.2273 14.3408 31.9565 14.0808Z" fill="#27C153"/>
<path opacity="0.4" d="M32.8327 17.4175V18.75H11.166V17.1683C11.166 14.6875 13.181 12.6833 15.6618 12.6833H26.3327V15.4675C26.3327 16.8433 27.156 17.6667 28.5318 17.6667H31.7168C32.1502 17.6667 32.5185 17.5908 32.8327 17.4175Z" fill="#27C153"/>
<path d="M11.166 18.75V26.8317C11.166 29.3125 13.181 31.3167 15.6618 31.3167H28.3368C30.8177 31.3167 32.8327 29.3125 32.8327 26.8317V18.75H11.166ZM17.666 27.6875H15.4993C15.0552 27.6875 14.6868 27.3192 14.6868 26.875C14.6868 26.4308 15.0552 26.0625 15.4993 26.0625H17.666C18.1102 26.0625 18.4785 26.4308 18.4785 26.875C18.4785 27.3192 18.1102 27.6875 17.666 27.6875ZM24.7077 27.6875H20.3743C19.9302 27.6875 19.5618 27.3192 19.5618 26.875C19.5618 26.4308 19.9302 26.0625 20.3743 26.0625H24.7077C25.1518 26.0625 25.5202 26.4308 25.5202 26.875C25.5202 27.3192 25.1518 27.6875 24.7077 27.6875Z" fill="#27C153"/>
<path d="M206 23C206.552 23 207 22.5523 207 22C207 21.4477 206.552 21 206 21C205.448 21 205 21.4477 205 22C205 22.5523 205.448 23 206 23Z" stroke="#25282C" stroke-width="2" stroke-linecap="round" stroke-linejoin="round"/>
<path d="M206 16C206.552 16 207 15.5523 207 15C207 14.4477 206.552 14 206 14C205.448 14 205 14.4477 205 15C205 15.5523 205.448 16 206 16Z" stroke="#25282C" stroke-width="2" stroke-linecap="round" stroke-linejoin="round"/>
<path d="M206 30C206.552 30 207 29.5523 207 29C207 28.4477 206.552 28 206 28C205.448 28 205 28.4477 205 29C205 29.5523 205.448 30 206 30Z" stroke="#25282C" stroke-width="2" stroke-linecap="round" stroke-linejoin="round"/>
</svg>
