<svg width="21" height="22" viewBox="0 0 21 22" fill="none" xmlns="http://www.w3.org/2000/svg">
<path d="M0.607669 18.5743L0.586669 18.5961C0.303178 17.9519 0.124684 17.2203 0.0511859 16.4122C0.124684 17.2094 0.324177 17.93 0.607669 18.5743Z" fill="#292D32"/>
<path d="M7.34977 9.15064C8.72989 9.15064 9.84869 7.98708 9.84869 6.55176C9.84869 5.11644 8.72989 3.95288 7.34977 3.95288C5.96965 3.95288 4.85085 5.11644 4.85085 6.55176C4.85085 7.98708 5.96965 9.15064 7.34977 9.15064Z" fill="#292D32"/>
<path d="M14.899 0H6.10031C2.27843 0 0 2.36957 0 6.34432V15.495C0 16.6852 0.199494 17.7226 0.587982 18.5962C1.49095 20.6709 3.42289 21.8393 6.10031 21.8393H14.899C18.7209 21.8393 20.9993 19.4698 20.9993 15.495V12.9944V6.34432C20.9993 2.36957 18.7209 0 14.899 0ZM19.2879 11.4656C18.4689 10.734 17.146 10.734 16.327 11.4656L11.9591 15.364C11.1402 16.0956 9.81719 16.0956 8.99822 15.364L8.64123 15.0582C7.89575 14.3812 6.70929 14.3157 5.86932 14.9053L1.94244 17.6462C1.71145 17.0347 1.57495 16.3249 1.57495 15.495V6.34432C1.57495 3.26498 3.1394 1.63795 6.10031 1.63795H14.899C17.8599 1.63795 19.4244 3.26498 19.4244 6.34432V11.5858L19.2879 11.4656Z" fill="#292D32"/>
</svg>
