<svg width="18" height="18" viewBox="0 0 18 18" fill="none" xmlns="http://www.w3.org/2000/svg">
<path d="M8.14763 16.2953C3.65181 16.2953 0 12.6434 0 8.14763C0 3.65181 3.65181 0 8.14763 0C12.6434 0 16.2953 3.65181 16.2953 8.14763C16.2953 12.6434 12.6434 16.2953 8.14763 16.2953ZM8.14763 1.25348C4.3454 1.25348 1.25348 4.3454 1.25348 8.14763C1.25348 11.9499 4.3454 15.0418 8.14763 15.0418C11.9499 15.0418 15.0418 11.9499 15.0418 8.14763C15.0418 4.3454 11.9499 1.25348 8.14763 1.25348Z" fill="#1D1C3E"/>
<path d="M15.8025 18C15.7356 18 15.6688 17.9916 15.6103 17.9833C15.2175 17.9331 14.5072 17.6657 14.1061 16.4708C13.8972 15.844 13.9724 15.2173 14.315 14.7409C14.6576 14.2646 15.2342 13.9972 15.8944 13.9972C16.7467 13.9972 17.4153 14.3231 17.7161 14.8997C18.0169 15.4763 17.9334 16.2117 17.457 16.922C16.8637 17.8162 16.2203 18 15.8025 18ZM15.3011 16.078C15.4431 16.5125 15.6437 16.7298 15.7774 16.7465C15.9111 16.7632 16.1618 16.6045 16.4208 16.2284C16.6632 15.8691 16.6799 15.61 16.6214 15.493C16.5629 15.376 16.3289 15.2507 15.8944 15.2507C15.6353 15.2507 15.4431 15.3343 15.3345 15.4763C15.2342 15.6184 15.2175 15.8357 15.3011 16.078Z" fill="#1D1C3E"/>
</svg>
