<svg width="17" height="15" viewBox="0 0 17 15" fill="none" xmlns="http://www.w3.org/2000/svg">
<path d="M9.23739 14.608C9.31357 14.5596 11.1067 13.4141 12.9214 11.7531M9.23739 14.608L1.32763 3.47185C1.53639 2.99065 1.8385 2.55426 2.21722 2.18761L2.21722 2.18762L2.21859 2.18629C2.60168 1.81399 3.04686 1.52205 3.54245 1.31846L3.54353 1.31801C4.05577 1.10689 4.5981 1.00001 5.1627 1.00001C5.94437 1.00001 6.70467 1.21233 7.36393 1.61138L7.36396 1.6114C7.52169 1.70687 7.67075 1.81124 7.81149 1.92451L8.43847 2.42911L9.06544 1.92451C9.20619 1.81124 9.35524 1.70687 9.51297 1.6114L9.513 1.61138C10.1723 1.21233 10.9326 1.00001 11.7142 1.00002L11.7165 1.00001C12.2716 0.998743 12.8212 1.1069 13.3334 1.31801L13.3347 1.31854C13.8282 1.52114 14.2774 1.81575 14.658 2.18599L14.6588 2.18677C15.0374 2.55418 15.3398 2.99087 15.5494 3.47219M9.23739 14.608L8.77444 14.9026M9.23739 14.608H7.63759L8.10054 14.9026M12.9214 11.7531C14.0153 10.751 14.8962 9.76258 15.5369 8.81481M12.9214 11.7531L12.2459 11.0157M12.9214 11.7531L12.2462 11.0154C12.2461 11.0155 12.246 11.0156 12.2459 11.0157M15.5369 8.81481C15.9413 8.21592 16.2597 7.62284 16.4784 7.05108C16.7422 6.3669 16.875 5.69436 16.875 5.04895C16.8769 4.36477 16.7382 3.69998 16.4667 3.07395L15.5493 3.47185C15.5493 3.47196 15.5494 3.47208 15.5494 3.47219M15.5369 8.81481L14.7085 8.25477C14.7084 8.25488 14.7083 8.255 14.7082 8.25511M15.5369 8.81481L14.7081 8.25525M15.5494 3.47219C15.7666 3.97305 15.8765 4.5014 15.875 5.04609V5.04895C15.875 5.55634 15.7706 6.10708 15.5454 6.69143L15.5445 6.69371C15.3581 7.1808 15.0788 7.70628 14.7082 8.25511M15.5494 3.47219L14.7082 8.25511M14.7082 8.25511L14.7081 8.25525M14.7081 8.25525C14.1224 9.12169 13.2984 10.0516 12.2459 11.0157M14.7081 8.25525L8.43749 13.9317M12.2459 11.0157C10.4941 12.6191 8.75715 13.7283 8.70071 13.7642L8.70051 13.7643L8.43749 13.9317M8.43749 13.9317L8.17447 13.7643L8.16664 13.7594L8.15872 13.7545C8.15925 13.7548 8.04762 13.6844 7.84453 13.5472C7.64621 13.4133 7.36814 13.2206 7.03664 12.9785C6.37211 12.4931 5.50078 11.8145 4.62916 11.0158L4.62905 11.0157C3.57645 10.0515 2.75243 9.12147 2.16662 8.25494L8.43749 13.9317ZM8.43749 13.9317L8.63547 14.0577M8.43749 13.9317L8.23951 14.0577M8.63547 14.0577C8.51393 13.9808 8.36105 13.9808 8.23951 14.0577M8.63547 14.0577L8.43749 14.3704L8.23951 14.0577M8.63547 14.0577L8.63741 14.0589L8.43835 14.3718L8.77444 14.9026M8.23951 14.0577L8.23757 14.0589L8.43663 14.3718L8.10054 14.9026M8.77444 14.9026L8.43749 14.3731L8.10054 14.9026M8.77444 14.9026C8.56934 15.0325 8.30564 15.0325 8.10054 14.9026M1 5.04895C1 4.50223 1.11036 3.97284 1.3276 3.47193L1.32943 6.69093C1.10433 6.10676 1 5.55619 1 5.04895ZM2.1665 8.25477C1.7974 7.708 1.51896 7.18175 1.32962 6.69144L2.1665 8.25477Z" stroke="#778088" stroke-width="2"/>
</svg>
