<svg width="16" height="18" viewBox="0 0 16 18" fill="none" xmlns="http://www.w3.org/2000/svg">
<path d="M7.82521 18.0001C6.91296 18.0001 6.00909 17.7322 5.29771 17.205L1.69895 14.5185C0.744859 13.8071 0 12.3174 0 11.1373V4.91063C0 3.62177 0.94572 2.24922 2.15925 1.79729L6.33549 0.232245C7.16404 -0.0774151 8.46963 -0.0774151 9.29819 0.232245L13.4744 1.79729C14.688 2.24922 15.6337 3.62177 15.6337 4.91063V11.1289C15.6337 12.3174 14.8888 13.7987 13.9347 14.5101L10.336 17.1966C9.64132 17.7322 8.73745 18.0001 7.82521 18.0001ZM6.77905 1.4123L2.60282 2.97734C1.89144 3.24516 1.26375 4.14903 1.26375 4.919V11.1373C1.26375 11.9324 1.82449 13.0455 2.45218 13.5142L6.05093 16.2007C7.01339 16.9204 8.63702 16.9204 9.60785 16.2007L13.2066 13.5142C13.8427 13.0371 14.395 11.9324 14.395 11.1373V4.91063C14.395 4.14903 13.7673 3.24516 13.056 2.96898L8.87972 1.40393C8.31062 1.20307 7.33979 1.20307 6.77905 1.4123Z" fill="#292D32"/>
<path d="M6.70229 10.8612C6.54328 10.8612 6.38426 10.8026 6.25873 10.6771L4.91128 9.32964C4.66858 9.08693 4.66858 8.68521 4.91128 8.4425C5.15399 8.19979 5.55571 8.19979 5.79842 8.4425L6.70229 9.34637L9.85748 6.19118C10.1002 5.94848 10.5019 5.94848 10.7446 6.19118C10.9873 6.43389 10.9873 6.83561 10.7446 7.07832L7.14586 10.6771C7.02032 10.8026 6.86131 10.8612 6.70229 10.8612Z" fill="#292D32"/>
</svg>
