<svg width="34" height="23" viewBox="0 0 34 23" fill="none" xmlns="http://www.w3.org/2000/svg">
<path fill-rule="evenodd" clip-rule="evenodd" d="M15.1659 3.26397C14.2162 3.26397 13.4084 3.69603 13.1816 4.27838H20.807C20.5802 3.69603 19.7723 3.26397 18.8227 3.26397H15.1659ZM22.9615 4.27841H25.7679C28.7443 4.27841 31.168 5.88456 31.168 7.85702C31.168 7.85702 31.083 8.69203 31.0546 9.85485C31.0518 9.94689 30.9838 10.0371 30.8718 10.0915C30.19 10.4212 29.5664 10.6936 29.5097 10.7124C27.1569 11.7456 24.4228 12.4726 21.5101 12.8342C21.3202 12.8586 21.1331 12.7938 21.0367 12.683C20.2203 11.7569 18.6952 11.1539 16.9944 11.1539C15.3049 11.1539 13.7657 11.7503 12.9252 12.6773C12.8274 12.7863 12.6431 12.8492 12.4546 12.8258C9.56602 12.4632 6.83193 11.7371 4.49329 10.7218L3.13262 10.1019C3.01923 10.0549 2.94836 9.97038 2.94836 9.87645C2.90584 9.39742 2.83498 7.85702 2.83498 7.85702C2.83498 5.88456 5.25866 4.27841 8.23512 4.27841H11.0273C11.2966 2.91647 13.04 1.8551 15.166 1.8551H18.8228C20.9488 1.8551 22.6922 2.91647 22.9615 4.27841ZM30.6845 11.8868L30.6279 11.9056C27.7648 13.1642 24.3206 14.0001 20.7063 14.3477C20.1961 14.3946 19.6858 14.1786 19.5441 13.8405C19.2323 13.0703 18.2259 12.5631 17.0212 12.5631H17.007H16.9787C15.7739 12.5631 14.7676 13.0703 14.4558 13.8405C14.314 14.1786 13.8038 14.3946 13.2935 14.3477C9.67927 14.0001 6.23508 13.1642 3.37201 11.9056C3.35784 11.8962 3.2161 11.8398 3.10271 11.8868C2.97515 11.9338 2.97515 12.0465 2.97515 12.0465L3.07437 16.8367C3.07437 18.8092 5.48388 20.406 8.46034 20.406H25.5254C28.5018 20.406 30.9113 18.8092 30.9113 16.8367L31.0247 12.0465C31.0247 12.0465 31.0247 11.9338 30.8972 11.8868C30.8263 11.8586 30.7412 11.868 30.6845 11.8868ZM18.0567 15.8223C18.0567 16.2168 17.5889 16.5268 16.9937 16.5268C16.4125 16.5268 15.9306 16.2168 15.9306 15.8223V14.6107C15.9306 14.2256 16.4125 13.9062 16.9937 13.9062C17.5889 13.9062 18.0567 14.2256 18.0567 14.6107V15.8223Z" fill="#22B07D"/>
</svg>
