<svg width="18" height="18" viewBox="0 0 18 18" fill="none" xmlns="http://www.w3.org/2000/svg">
<path d="M13.3554 17.9183H3.76692C1.68718 17.9183 0 16.2311 0 14.1513V8.53022C0 6.45048 1.68718 4.7633 3.76692 4.7633H13.3554C15.4352 4.7633 17.1223 6.45048 17.1223 8.53022V9.73296C17.1223 10.0754 16.8384 10.3594 16.4959 10.3594H14.8087C14.5164 10.3594 14.2491 10.468 14.057 10.6684L14.0487 10.6768C13.8148 10.9023 13.7062 11.2113 13.7313 11.5287C13.7814 12.0799 14.3076 12.5226 14.909 12.5226H16.4959C16.8384 12.5226 17.1223 12.8066 17.1223 13.1491V14.143C17.1223 16.2311 15.4352 17.9183 13.3554 17.9183ZM3.76692 6.01615C2.38042 6.01615 1.25285 7.14373 1.25285 8.53022V14.1513C1.25285 15.5378 2.38042 16.6654 3.76692 16.6654H13.3554C14.7419 16.6654 15.8695 15.5378 15.8695 14.1513V13.7838H14.909C13.6478 13.7838 12.5787 12.8484 12.4784 11.6456C12.4116 10.9607 12.6622 10.2842 13.1633 9.79144C13.5976 9.34876 14.1823 9.10654 14.8087 9.10654H15.8695V8.53022C15.8695 7.14373 14.7419 6.01615 13.3554 6.01615H3.76692Z" fill="#D64BC2"/>
<path d="M0.626427 9.90852C0.28398 9.90852 0 9.62454 0 9.28209V5.46511C0 4.22061 0.785122 3.09299 1.9461 2.65031L8.57788 0.144605C9.26277 -0.114319 10.0228 -0.0224018 10.6159 0.395216C11.2172 0.812835 11.568 1.48937 11.568 2.21603V5.38991C11.568 5.73236 11.284 6.01634 10.9416 6.01634C10.5992 6.01634 10.3152 5.73236 10.3152 5.38991V2.21603C10.3152 1.89864 10.1648 1.60629 9.89755 1.42254C9.63028 1.23879 9.31289 1.19702 9.0122 1.31396L2.38042 3.81967C1.70388 4.07859 1.2445 4.73845 1.2445 5.46511V9.28209C1.25285 9.63289 0.968874 9.90852 0.626427 9.90852Z" fill="#D64BC2"/>
<path d="M14.909 13.7837C13.6478 13.7837 12.5787 12.8483 12.4785 11.6455C12.4117 10.9523 12.6622 10.2758 13.1634 9.78298C13.5894 9.34866 14.174 9.10644 14.8004 9.10644H16.5377C17.3646 9.1315 17.9994 9.78295 17.9994 10.5848V12.3054C17.9994 13.1072 17.3646 13.7587 16.5628 13.7837H14.909ZM16.521 10.3593H14.8088C14.5165 10.3593 14.2492 10.4679 14.0571 10.6683C13.8149 10.9022 13.6979 11.2196 13.7313 11.537C13.7815 12.0882 14.3077 12.5309 14.909 12.5309H16.5461C16.6547 12.5309 16.7549 12.4307 16.7549 12.3054V10.5848C16.7549 10.4595 16.6547 10.3677 16.521 10.3593Z" fill="#D64BC2"/>
<path d="M10.2316 9.56599H4.38499C4.04254 9.56599 3.75856 9.28201 3.75856 8.93956C3.75856 8.59711 4.04254 8.31313 4.38499 8.31313H10.2316C10.5741 8.31313 10.8581 8.59711 10.8581 8.93956C10.8581 9.28201 10.5741 9.56599 10.2316 9.56599Z" fill="#D64BC2"/>
</svg>
