<svg width="16" height="16" viewBox="0 0 16 16" fill="none" xmlns="http://www.w3.org/2000/svg">
<path d="M7.8 4C7.35817 4 7 4.35817 7 4.8V5.2C7 5.64183 7.35817 6 7.8 6H8.2C8.64183 6 9 5.64183 9 5.2V4.8C9 4.35817 8.64183 4 8.2 4H7.8Z" fill="#404CB3"/>
<path d="M7.8 7C7.35817 7 7 7.35817 7 7.8V11.2C7 11.6418 7.35817 12 7.8 12H8.2C8.64183 12 9 11.6418 9 11.2V7.8C9 7.35817 8.64183 7 8.2 7H7.8Z" fill="#404CB3"/>
<path fill-rule="evenodd" clip-rule="evenodd" d="M8 2C4.68652 2 2 4.68628 2 8C2 11.3137 4.68652 14 8 14C11.3135 14 14 11.3137 14 8C14 4.68628 11.3135 2 8 2ZM8 3C5.23877 3 3 5.23853 3 8C3 10.7615 5.23877 13 8 13C10.7612 13 13 10.7615 13 8C13 5.23853 10.7612 3 8 3Z" fill="#404CB3"/>
</svg>
