<svg width="18" height="18" viewBox="0 0 18 18" fill="none" xmlns="http://www.w3.org/2000/svg">
<path d="M5.87678 17.9988H2.4947C0.812034 17.9988 0 17.2202 0 15.6129V2.38596C0 0.778632 0.820405 8.43076e-05 2.4947 8.43076e-05H5.87678C7.55945 8.43076e-05 8.37148 0.778632 8.37148 2.38596V15.6129C8.37148 17.2202 7.55108 17.9988 5.87678 17.9988ZM2.4947 1.25581C1.43152 1.25581 1.25572 1.54044 1.25572 2.38596V15.6129C1.25572 16.4584 1.43152 16.7431 2.4947 16.7431H5.87678C6.93996 16.7431 7.11576 16.4584 7.11576 15.6129V2.38596C7.11576 1.54044 6.93996 1.25581 5.87678 1.25581H2.4947Z" fill="#D64BC2"/>
<path d="M15.5046 8.37148H12.1226C10.4399 8.37148 9.62786 7.62642 9.62786 6.08607V2.28542C9.62786 0.745062 10.4483 0 12.1226 0H15.5046C17.1873 0 17.9993 0.745062 17.9993 2.28542V6.0777C17.9993 7.62642 17.1789 8.37148 15.5046 8.37148ZM12.1226 1.25572C11.0008 1.25572 10.8836 1.57384 10.8836 2.28542V6.0777C10.8836 6.79765 11.0008 7.10739 12.1226 7.10739H15.5046C16.6264 7.10739 16.7436 6.78927 16.7436 6.0777V2.28542C16.7436 1.56547 16.6264 1.25572 15.5046 1.25572H12.1226Z" fill="#D64BC2"/>
<path d="M15.5046 17.9987H12.1226C10.4399 17.9987 9.62786 17.1783 9.62786 15.504V12.1219C9.62786 10.4392 10.4483 9.62721 12.1226 9.62721H15.5046C17.1873 9.62721 17.9993 10.4476 17.9993 12.1219V15.504C17.9993 17.1783 17.1789 17.9987 15.5046 17.9987ZM12.1226 10.8829C11.1347 10.8829 10.8836 11.1341 10.8836 12.1219V15.504C10.8836 16.4918 11.1347 16.743 12.1226 16.743H15.5046C16.4925 16.743 16.7436 16.4918 16.7436 15.504V12.1219C16.7436 11.1341 16.4925 10.8829 15.5046 10.8829H12.1226Z" fill="#D64BC2"/>
</svg>
