<svg width="49" height="27" viewBox="0 0 49 27" fill="none" xmlns="http://www.w3.org/2000/svg">
<path d="M46.8696 18.7067V25.2541C46.8696 25.7704 46.3924 26.1894 45.8044 26.1894H1.06522C0.477218 26.1894 0 25.7704 0 25.2541V18.7067H46.8696ZM49 0.935336V6.54735C49 7.06365 48.5228 7.48268 47.9348 7.48268H28.7609C28.1729 7.48268 27.6957 7.06365 27.6957 6.54735V0.935336C27.6957 0.41903 28.1729 0 28.7609 0H47.9348C48.5228 0 49 0.41903 49 0.935336ZM34.087 3.74134C34.087 2.70873 33.1326 1.87067 31.9566 1.87067C30.7806 1.87067 29.8261 2.70873 29.8261 3.74134C29.8261 4.77395 30.7806 5.61201 31.9566 5.61201C33.1326 5.61201 34.087 4.77395 34.087 3.74134Z" fill="#FFC9D9"/>
</svg>
