<svg width="15" height="15" viewBox="0 0 15 15" fill="none" xmlns="http://www.w3.org/2000/svg">
<path d="M3.125 5.20833H4.79167V6.69381H3.125V5.20833ZM3.125 8.17929H4.79167V9.66477H3.125V8.17929ZM6.45833 5.20833H8.125V6.69381H6.45833V5.20833ZM6.45833 8.17929H8.125V9.66477H6.45833V8.17929ZM9.79167 5.20833H11.4583V6.69381H9.79167V5.20833ZM9.79167 8.17929H11.4583V9.66477H9.79167V8.17929Z" fill="#7BBCB0"/>
<path d="M1.66667 14.8548H13.3333C14.2525 14.8548 15 14.1885 15 13.3693V2.97096C15 2.15172 14.2525 1.48548 13.3333 1.48548H11.6667V0H10V1.48548H5V0H3.33333V1.48548H1.66667C0.7475 1.48548 0 2.15172 0 2.97096V13.3693C0 14.1885 0.7475 14.8548 1.66667 14.8548ZM13.3333 4.45644L13.3342 13.3693H1.66667V4.45644H13.3333Z" fill="#7BBCB0"/>
</svg>
