<svg width="22" height="23" viewBox="0 0 22 23" fill="none" xmlns="http://www.w3.org/2000/svg">
<path fill-rule="evenodd" clip-rule="evenodd" d="M17.3453 6.82014H21.9994C21.9994 2.515 19.7603 0 15.9667 0H6.03272C2.23905 0 0 2.515 0 6.76523V16.0455C0 20.2957 2.23905 22.8107 6.03272 22.8107H15.9667C19.7603 22.8107 21.9994 20.2957 21.9994 16.0455V15.6501H17.3453C15.1853 15.6501 13.4343 13.6833 13.4343 11.2571C13.4343 8.83089 15.1853 6.86407 17.3453 6.86407V6.82014ZM17.3448 8.70913H21.1776C21.6312 8.70913 21.9989 9.12216 21.9989 9.63166V12.8386C21.9936 13.3456 21.629 13.7552 21.1776 13.7611H17.4328C16.3393 13.7776 15.3831 12.9367 15.1351 11.7403C15.0109 10.9977 15.1853 10.2313 15.6115 9.64666C16.0377 9.06201 16.6721 8.71884 17.3448 8.70913ZM17.5125 12.0808H17.8743C18.3387 12.0808 18.7152 11.6579 18.7152 11.1363C18.7152 10.6147 18.3387 10.1918 17.8743 10.1918H17.5125C17.2904 10.1889 17.0765 10.2859 16.9185 10.4613C16.7606 10.6367 16.6717 10.8758 16.6717 11.1253C16.6716 11.6487 17.0466 12.0748 17.5125 12.0808ZM5.21204 6.82016H11.4208C11.8852 6.82016 12.2616 6.39729 12.2616 5.87566C12.2616 5.35403 11.8852 4.93116 11.4208 4.93116H5.21204C4.75144 4.93113 4.37653 5.34734 4.37117 5.86468C4.37114 6.38811 4.74607 6.81414 5.21204 6.82016Z" fill="white"/>
</svg>
