<svg width="16" height="16" viewBox="0 0 16 16" fill="none" xmlns="http://www.w3.org/2000/svg">
<path d="M10.4 14.4H5.59998V15.2C5.59998 15.4122 5.51569 15.6157 5.36566 15.7657C5.21563 15.9157 5.01215 16 4.79998 16H3.99998C3.7878 16 3.58432 15.9157 3.43429 15.7657C3.28426 15.6157 3.19998 15.4122 3.19998 15.2V14.4C2.77563 14.4 2.36866 14.2314 2.0686 13.9314C1.76855 13.6313 1.59998 13.2243 1.59998 12.8V1.6C1.59998 0.72 2.31998 0 3.19998 0H12.8C13.2243 0 13.6313 0.168571 13.9313 0.468629C14.2314 0.768687 14.4 1.17565 14.4 1.6V12.8C14.4 13.2243 14.2314 13.6313 13.9313 13.9314C13.6313 14.2314 13.2243 14.4 12.8 14.4V15.2C12.8 15.4122 12.7157 15.6157 12.5657 15.7657C12.4156 15.9157 12.2121 16 12 16H11.2C10.9878 16 10.7843 15.9157 10.6343 15.7657C10.4843 15.6157 10.4 15.4122 10.4 15.2V14.4ZM3.19998 4V8.8H7.19998V4H3.19998ZM8.79998 4V8.8H12.8V4H8.79998ZM3.99998 1.6V2.4H12V1.6H3.99998ZM4.39998 12.8C4.71824 12.8 5.02346 12.6736 5.2485 12.4485C5.47355 12.2235 5.59998 11.9183 5.59998 11.6C5.59998 11.2817 5.47355 10.9765 5.2485 10.7515C5.02346 10.5264 4.71824 10.4 4.39998 10.4C4.08172 10.4 3.77649 10.5264 3.55145 10.7515C3.3264 10.9765 3.19998 11.2817 3.19998 11.6C3.19998 11.9183 3.3264 12.2235 3.55145 12.4485C3.77649 12.6736 4.08172 12.8 4.39998 12.8ZM11.6 12.8C11.9182 12.8 12.2235 12.6736 12.4485 12.4485C12.6735 12.2235 12.8 11.9183 12.8 11.6C12.8 11.2817 12.6735 10.9765 12.4485 10.7515C12.2235 10.5264 11.9182 10.4 11.6 10.4C11.2817 10.4 10.9765 10.5264 10.7514 10.7515C10.5264 10.9765 10.4 11.2817 10.4 11.6C10.4 11.9183 10.5264 12.2235 10.7514 12.4485C10.9765 12.6736 11.2817 12.8 11.6 12.8Z" fill="#D176E0"/>
</svg>
