<svg width="11" height="13" viewBox="0 0 11 13" fill="none" xmlns="http://www.w3.org/2000/svg">
<path d="M5.5 0C4.04184 0.00153322 2.64389 0.518493 1.61282 1.43748C0.58174 2.35646 0.00172608 3.60243 5.85143e-06 4.90207C-0.00174059 5.96414 0.387496 6.99739 1.108 7.84332C1.108 7.84332 1.258 8.01935 1.2825 8.04475L5.5 12.478L9.71949 8.04252C9.74149 8.0189 9.89199 7.84332 9.89199 7.84332L9.89249 7.84198C10.6126 6.99642 11.0017 5.96365 11 4.90207C10.9983 3.60243 10.4183 2.35646 9.38718 1.43748C8.3561 0.518493 6.95816 0.00153322 5.5 0ZM5.5 6.68464C5.10444 6.68464 4.71776 6.5801 4.38886 6.38423C4.05996 6.18836 3.80362 5.90996 3.65224 5.58423C3.50087 5.25851 3.46126 4.9001 3.53843 4.55431C3.6156 4.20853 3.80608 3.8909 4.08579 3.6416C4.36549 3.39231 4.72186 3.22253 5.10982 3.15375C5.49778 3.08497 5.89991 3.12027 6.26536 3.25519C6.63082 3.39011 6.94317 3.61859 7.16293 3.91173C7.3827 4.20487 7.5 4.54951 7.5 4.90207C7.49933 5.37466 7.28841 5.82772 6.91348 6.16189C6.53855 6.49606 6.03023 6.68406 5.5 6.68464Z" fill="white"/>
</svg>
