<svg width="19" height="19" viewBox="0 0 19 19" fill="none" xmlns="http://www.w3.org/2000/svg">
<g clip-path="url(#clip0_168_1608)">
<path d="M18.8152 9.71894C18.8152 9.07316 18.7628 8.42389 18.6511 7.78857H9.69043V11.4469H14.8218C14.6089 12.6267 13.9247 13.6704 12.9228 14.3337V16.7074H15.9842C17.7819 15.0528 18.8152 12.6093 18.8152 9.71894Z" fill="#4285F4"/>
<path d="M9.68963 19.0006C12.2518 19.0006 14.4126 18.1594 15.9869 16.7072L12.9255 14.3335C12.0738 14.913 10.9742 15.2411 9.69312 15.2411C7.21471 15.2411 5.1133 13.5691 4.3593 11.321H1.2002V13.768C2.81291 16.976 6.09768 19.0006 9.68963 19.0006Z" fill="#34A853"/>
<path d="M4.35661 11.3211C3.95866 10.1413 3.95866 8.86368 4.35661 7.68381V5.23682H1.20099C-0.146425 7.92118 -0.146425 11.0838 1.20099 13.7681L4.35661 11.3211Z" fill="#FBBC04"/>
<path d="M9.68963 3.76015C11.044 3.7392 12.3531 4.24885 13.3339 5.18436L16.0462 2.47207C14.3288 0.859358 12.0494 -0.0272856 9.68963 0.000640194C6.09768 0.000640194 2.81291 2.02526 1.2002 5.23672L4.35581 7.68372C5.10631 5.4322 7.21122 3.76015 9.68963 3.76015Z" fill="#EA4335"/>
</g>
<defs>
<clipPath id="clip0_168_1608">
<rect width="19" height="19" fill="white"/>
</clipPath>
</defs>
</svg>
