<svg width="133" height="123" viewBox="0 0 133 123" fill="none" xmlns="http://www.w3.org/2000/svg">
<path d="M97.9521 18.2161C99.6994 16.1413 99.4443 13.0249 97.2367 11.4487C87.3238 4.37053 75.4969 0.373087 63.2476 0.0248525C49.3566 -0.370056 35.7412 3.95129 24.6204 12.2847C13.4996 20.618 5.529 32.4721 2.00744 45.9152C-1.51413 59.3583 -0.379004 73.5977 5.22783 86.3131C10.8347 99.0285 20.5827 109.47 32.8832 115.936C45.1838 122.403 59.3118 124.512 72.9649 121.922C86.6179 119.331 98.9911 112.193 108.068 101.67C116.072 92.3913 121.097 80.963 122.557 68.8702C122.882 66.1772 120.753 63.887 118.043 63.7779C115.332 63.6687 113.071 65.7834 112.705 68.4711C111.361 78.3441 107.184 87.6565 100.63 95.2541C93.0029 104.096 82.606 110.094 71.1337 112.271C59.6613 114.448 47.7899 112.675 37.454 107.242C27.1181 101.808 18.9271 93.0343 14.2158 82.3499C9.50448 71.6654 8.55065 59.7003 11.5097 48.4044C14.4688 37.1085 21.1664 27.1478 30.5109 20.1455C39.8555 13.1431 51.2961 9.512 62.9685 9.84383C72.9982 10.129 82.6908 13.3257 90.8869 18.992C93.1181 20.5345 96.2048 20.2909 97.9521 18.2161Z" fill="white"/>
<path d="M123 19.1965L62.8772 79.63L35.5488 52.1602" stroke="white" stroke-width="20" stroke-linecap="round" stroke-linejoin="round"/>
</svg>
