<svg width="13" height="15" viewBox="0 0 13 15" fill="none" xmlns="http://www.w3.org/2000/svg">
<path d="M6.49998 0C4.77671 0.00181199 3.12459 0.612763 1.90605 1.69883C0.68751 2.7849 0.00203991 4.25741 6.91532e-06 5.79335C-0.00205706 7.04851 0.457948 8.26962 1.30946 9.26936C1.30946 9.26936 1.48673 9.47739 1.51568 9.50741L6.49998 14.7467L11.4866 9.50478C11.5126 9.47686 11.6905 9.26936 11.6905 9.26936L11.6911 9.26777C12.5422 8.26848 13.002 7.04794 13 5.79335C12.9979 4.25741 12.3125 2.7849 11.0939 1.69883C9.87538 0.612763 8.22326 0.00181199 6.49998 0ZM6.49998 7.90002C6.0325 7.90002 5.57552 7.77646 5.18682 7.54498C4.79813 7.3135 4.49517 6.98448 4.31628 6.59953C4.13738 6.21459 4.09057 5.79101 4.18177 5.38236C4.27297 4.9737 4.49809 4.59833 4.82865 4.3037C5.15921 4.00908 5.58036 3.80844 6.03886 3.72715C6.49736 3.64587 6.97261 3.68759 7.40451 3.84704C7.8364 4.00648 8.20555 4.2765 8.46527 4.62294C8.72499 4.96938 8.86361 5.37669 8.86361 5.79335C8.86283 6.35186 8.61355 6.88729 8.17046 7.28222C7.72736 7.67714 7.12662 7.89932 6.49998 7.90002Z" fill="#7BBCB0"/>
</svg>
