<svg width="20" height="20" viewBox="0 0 20 20" fill="none" xmlns="http://www.w3.org/2000/svg">
<path d="M16.0833 14.0833C16.4167 13.5 16.6667 12.8333 16.6667 12.0833C16.6667 9.99996 15 8.33329 12.9167 8.33329C10.8333 8.33329 9.16666 9.99996 9.16666 12.0833C9.16666 14.1666 10.8333 15.8333 12.9167 15.8333C13.6667 15.8333 14.3333 15.5833 14.9167 15.25L17.5833 17.9166L18.75 16.75L16.0833 14.0833ZM12.9167 14.1666C11.75 14.1666 10.8333 13.25 10.8333 12.0833C10.8333 10.9166 11.75 9.99996 12.9167 9.99996C14.0833 9.99996 15 10.9166 15 12.0833C15 13.25 14.0833 14.1666 12.9167 14.1666ZM9.99999 16.6666V18.3333C5.39999 18.3333 1.66666 14.6 1.66666 9.99996C1.66666 5.39996 5.39999 1.66663 9.99999 1.66663C14.0333 1.66663 17.3917 4.53329 18.1667 8.33329H16.4417C16.1817 7.32649 15.6899 6.39444 15.0055 5.61164C14.3211 4.82883 13.4631 4.21697 12.5 3.82496V4.16663C12.5 5.08329 11.75 5.83329 10.8333 5.83329H9.16666V7.49996C9.16666 7.95829 8.79166 8.33329 8.33332 8.33329H6.66666V9.99996H8.33332V12.5H7.49999L3.50832 8.50829C3.39999 8.99163 3.33332 9.48329 3.33332 9.99996C3.33332 13.675 6.32499 16.6666 9.99999 16.6666Z" fill="#7BBCB0"/>
</svg>
