<svg width="308" height="92" viewBox="0 0 308 92" fill="none" xmlns="http://www.w3.org/2000/svg">
<rect x="0.545213" y="0.545213" width="306.91" height="90.6543" rx="10.359" fill="black" stroke="white" stroke-width="1.09043"/>
<path d="M82.1666 29.6103C82.9736 24.4382 82.1666 20.922 79.3791 17.7369C76.3177 14.228 70.7834 12.7248 63.7055 12.7248H43.1566C42.4562 12.7241 41.7785 12.9749 41.2457 13.432C40.713 13.8891 40.3601 14.5224 40.2507 15.2178L31.6957 69.7592C31.6556 70.0121 31.6705 70.2709 31.7395 70.5175C31.8084 70.7641 31.9298 70.9928 32.0952 71.1877C32.2606 71.3826 32.4661 71.5391 32.6975 71.6464C32.9289 71.7538 33.1807 71.8094 33.4356 71.8094H46.1218L45.2482 77.3908C45.2134 77.6123 45.2268 77.8387 45.2875 78.0545C45.3481 78.2703 45.4546 78.4704 45.5996 78.6408C45.7445 78.8113 45.9245 78.9481 46.1271 79.042C46.3298 79.1358 46.5502 79.1843 46.7733 79.1843H57.4716C58.0845 79.1845 58.6773 78.9645 59.143 78.564C59.6087 78.1635 59.9166 77.6088 60.0111 77.0001L60.1184 76.4568L62.1322 63.6159L62.2618 62.9052C62.3571 62.2972 62.6653 61.7434 63.1309 61.3436C63.5966 60.9438 64.1889 60.7244 64.8013 60.7248H66.4005C76.7656 60.7248 84.8726 56.4941 87.2418 44.2596C88.2339 39.1471 87.723 34.8792 85.1021 31.8801C84.273 30.9493 83.2804 30.1798 82.174 29.6103" fill="#009ADE"/>
<path d="M82.1666 29.6103C82.9736 24.4382 82.1666 20.922 79.3791 17.7369C76.3177 14.228 70.7834 12.7248 63.7055 12.7248H43.1566C42.4562 12.7241 41.7785 12.9749 41.2457 13.432C40.713 13.8891 40.3601 14.5224 40.2507 15.2178L31.6957 69.7592C31.6556 70.0121 31.6705 70.2709 31.7395 70.5175C31.8084 70.7641 31.9298 70.9928 32.0952 71.1877C32.2606 71.3826 32.4661 71.5391 32.6975 71.6464C32.9289 71.7538 33.1807 71.8094 33.4356 71.8094H46.1218L49.3276 51.4968L49.2276 52.1368C49.3338 51.4417 49.6841 50.8077 50.2151 50.3497C50.7461 49.8917 51.4228 49.64 52.1225 49.6401H58.1528C69.9987 49.6401 79.2532 44.8029 81.9778 30.8196C82.0555 30.4066 82.1259 30.0048 82.1851 29.6103" fill="#002169"/>
<path d="M52.7333 29.6775C52.7999 29.2645 52.9646 28.8737 53.2133 28.5382C53.462 28.2027 53.7875 27.9324 54.1622 27.7501C54.5086 27.5826 54.8883 27.4961 55.2727 27.4971H71.3831C73.1609 27.4791 74.9372 27.6036 76.6953 27.8692C77.1617 27.9436 77.6133 28.0329 78.0538 28.1296C78.4944 28.2264 78.9201 28.338 79.331 28.4571L79.9418 28.6505C80.7074 28.9019 81.4504 29.2181 82.1629 29.5957C82.9699 24.4236 82.1629 20.9073 79.3754 17.7222C76.314 14.2133 70.7797 12.7101 63.7018 12.7101H43.1566C42.4562 12.7094 41.7785 12.9602 41.2457 13.4173C40.713 13.8744 40.3601 14.5077 40.2507 15.2031L31.6957 69.7594C31.6556 70.0124 31.6705 70.2711 31.7395 70.5177C31.8084 70.7643 31.9298 70.993 32.0952 71.1879C32.2606 71.3828 32.4661 71.5393 32.6975 71.6466C32.9289 71.754 33.1807 71.8096 33.4356 71.8096H46.1218L49.3276 51.497L52.7333 29.6775Z" fill="#002F87"/>
<path d="M220.375 33.447H207.003C206.557 33.4413 206.123 33.596 205.782 33.8828C205.44 34.1697 205.213 34.5697 205.142 35.01L199.746 69.2482C199.721 69.4071 199.73 69.5696 199.774 69.7244C199.817 69.8793 199.894 70.0229 199.998 70.1454C200.102 70.2679 200.232 70.3665 200.378 70.4343C200.524 70.5021 200.683 70.5376 200.843 70.5383H207.722C208.032 70.5377 208.331 70.4269 208.566 70.2258C208.801 70.0246 208.957 69.7462 209.006 69.4404L210.532 59.7335C210.602 59.292 210.828 58.8905 211.17 58.6024C211.512 58.3142 211.946 58.1587 212.393 58.1642H216.617C225.412 58.1642 230.485 53.9092 231.813 45.4738C232.433 41.7522 231.813 38.8867 230.113 36.8584C228.184 34.6255 224.822 33.447 220.375 33.447ZM221.913 45.9514C221.182 50.7459 217.522 50.7459 213.98 50.7459H211.971L213.379 41.7956C213.421 41.5332 213.556 41.2944 213.758 41.1218C213.96 40.9491 214.217 40.8539 214.483 40.8529H215.413C217.82 40.8529 220.096 40.8529 221.268 42.2298C221.951 43.0486 222.162 44.2705 221.895 45.9514H221.913Z" fill="white"/>
<path d="M125.123 33.4469H111.769C111.331 33.4563 110.912 33.6193 110.583 33.9074C110.254 34.1955 110.037 34.5902 109.97 35.0223L104.567 69.2604C104.542 69.4199 104.552 69.5828 104.596 69.7382C104.64 69.8935 104.717 70.0374 104.822 70.16C104.927 70.2826 105.057 70.381 105.204 70.4485C105.35 70.5159 105.51 70.5507 105.671 70.5506H112.041C112.488 70.5561 112.922 70.4005 113.264 70.1124C113.606 69.8242 113.832 69.4227 113.902 68.9813L115.36 59.7457C115.429 59.3095 115.651 58.9122 115.986 58.6247C116.321 58.3373 116.748 58.1784 117.19 58.1765H121.413C130.209 58.1765 135.289 53.9215 136.616 45.486C137.236 41.7645 136.616 38.8989 134.91 36.8707C132.956 34.6253 129.588 33.4469 125.123 33.4469ZM126.661 45.9512C125.935 50.7458 122.276 50.7458 118.734 50.7458H116.718L118.132 41.7955C118.174 41.5336 118.307 41.2949 118.508 41.1222C118.709 40.9494 118.965 40.8539 119.23 40.8527H120.154C122.561 40.8527 124.844 40.8527 126.016 42.2297C126.717 43.0484 126.928 44.2703 126.661 45.9512Z" fill="white"/>
<path d="M165.03 45.7964H158.635C158.369 45.7963 158.113 45.8914 157.911 46.0643C157.71 46.2373 157.577 46.4767 157.537 46.7392L157.258 48.5255L156.811 47.9053C155.422 45.8956 152.339 45.2258 149.257 45.2258C142.192 45.2258 136.157 50.5786 134.991 58.0899C134.371 61.8114 135.251 65.4089 137.373 67.9085C139.32 70.2035 142.105 71.1586 145.436 71.1586C147.081 71.1756 148.713 70.8608 150.233 70.2331C151.754 69.6054 153.133 68.6777 154.287 67.5053L154.002 69.2793C153.977 69.4382 153.986 69.6006 154.03 69.7555C154.073 69.9104 154.15 70.054 154.254 70.1765C154.359 70.299 154.488 70.3975 154.634 70.4654C154.78 70.5332 154.939 70.5687 155.1 70.5694H160.831C161.278 70.5749 161.712 70.4194 162.053 70.1312C162.395 69.8431 162.621 69.4416 162.691 69.0002L166.146 47.1175C166.178 46.9546 166.172 46.7867 166.131 46.6261C166.089 46.4656 166.011 46.3164 165.904 46.1897C165.797 46.0629 165.663 45.9619 165.512 45.8938C165.36 45.8257 165.196 45.7924 165.03 45.7964ZM156.123 58.2449C155.871 59.9676 154.998 61.5388 153.668 62.6628C152.338 63.7869 150.644 64.3863 148.903 64.3483C148.105 64.4289 147.3 64.315 146.556 64.0164C145.812 63.7179 145.151 63.2434 144.631 62.6338C144.11 62.0241 143.745 61.2973 143.566 60.5157C143.388 59.7341 143.402 58.9209 143.606 58.1457C143.85 56.4242 144.712 54.8504 146.032 53.7181C147.351 52.5858 149.038 51.9725 150.776 51.9927C151.571 51.9506 152.366 52.085 153.102 52.3864C153.839 52.6877 154.5 53.1485 155.037 53.7357C155.535 54.3631 155.891 55.0917 156.078 55.8705C156.265 56.6493 156.281 57.4596 156.123 58.2449Z" fill="white"/>
<path d="M260.264 45.7964H253.869C253.604 45.7963 253.347 45.8914 253.145 46.0643C252.944 46.2373 252.811 46.4767 252.771 46.7392L252.486 48.5255L252.039 47.9053C250.656 45.8956 247.573 45.2258 244.491 45.2258C237.426 45.2258 231.391 50.5786 230.225 58.0899C229.605 61.8114 230.479 65.4089 232.607 67.9085C234.554 70.2035 237.339 71.1586 240.67 71.1586C242.318 71.1724 243.953 70.8531 245.475 70.22C246.996 69.587 248.375 68.6531 249.527 67.4743L249.242 69.2482C249.217 69.4072 249.227 69.5696 249.27 69.7245C249.314 69.8794 249.39 70.0229 249.495 70.1455C249.599 70.268 249.728 70.3665 249.874 70.4344C250.02 70.5022 250.179 70.5377 250.34 70.5384H256.096C256.543 70.5439 256.977 70.3884 257.318 70.1002C257.66 69.8121 257.887 69.4106 257.957 68.9691L261.411 47.0865C261.437 46.9234 261.427 46.7566 261.38 46.5981C261.334 46.4396 261.253 46.2934 261.143 46.17C261.033 46.0466 260.897 45.949 260.745 45.8844C260.593 45.8198 260.429 45.7898 260.264 45.7964ZM251.351 58.2449C251.101 59.9677 250.23 61.5396 248.901 62.6639C247.572 63.7883 245.878 64.3874 244.137 64.3483C243.34 64.4289 242.534 64.315 241.79 64.0164C241.046 63.7179 240.386 63.2434 239.865 62.6338C239.344 62.0241 238.979 61.2973 238.801 60.5157C238.622 59.7341 238.636 58.9209 238.84 58.1457C239.084 56.4253 239.945 54.8523 241.264 53.7202C242.582 52.588 244.267 51.974 246.004 51.9927C246.799 51.9493 247.594 52.0831 248.331 52.3845C249.068 52.686 249.729 53.1475 250.265 53.7357C250.763 54.3631 251.118 55.0917 251.306 55.8705C251.493 56.6493 251.509 57.4596 251.351 58.2449Z" fill="white"/>
<path d="M199.082 45.796H192.656C192.354 45.7969 192.057 45.8713 191.79 46.0129C191.523 46.1545 191.294 46.3589 191.124 46.6086L182.254 59.6649L178.502 47.1234C178.387 46.7402 178.152 46.4041 177.832 46.1651C177.511 45.926 177.122 45.7966 176.722 45.796H170.408C170.23 45.7964 170.056 45.839 169.898 45.9203C169.741 46.0016 169.605 46.1193 169.502 46.2636C169.399 46.4078 169.331 46.5745 169.306 46.75C169.28 46.9254 169.296 47.1044 169.353 47.2722L176.43 68.0384L169.775 77.4291C169.656 77.5952 169.586 77.7908 169.571 77.9944C169.557 78.198 169.598 78.4018 169.692 78.5832C169.785 78.7646 169.927 78.9167 170.102 79.0227C170.276 79.1288 170.476 79.1847 170.681 79.1844H177.1C177.4 79.1846 177.695 79.1125 177.96 78.9743C178.226 78.8361 178.454 78.6358 178.626 78.3904L200 47.5451C200.115 47.3777 200.182 47.1819 200.195 46.979C200.207 46.776 200.163 46.5736 200.069 46.3936C199.974 46.2136 199.832 46.0628 199.659 45.9575C199.485 45.8522 199.285 45.7964 199.082 45.796Z" fill="white"/>
<path d="M267.8 34.4023L262.317 69.2607C262.292 69.4196 262.301 69.5821 262.345 69.737C262.389 69.8918 262.465 70.0354 262.569 70.1579C262.674 70.2805 262.803 70.379 262.949 70.4468C263.095 70.5146 263.254 70.5501 263.415 70.5509H268.929C269.376 70.5564 269.81 70.4008 270.151 70.1127C270.493 69.8245 270.72 69.423 270.79 68.9816L276.198 34.7435C276.223 34.5843 276.214 34.4216 276.17 34.2666C276.126 34.1116 276.048 33.9681 275.943 33.8459C275.838 33.7237 275.708 33.6259 275.561 33.5592C275.415 33.4925 275.255 33.4585 275.094 33.4595H268.929C268.658 33.4519 268.394 33.5436 268.186 33.7172C267.978 33.8908 267.841 34.1345 267.8 34.4023Z" fill="white"/>
</svg>
