<svg width="450" height="559" viewBox="0 0 450 559" fill="none" xmlns="http://www.w3.org/2000/svg">
<g filter="url(#filter0_d_52_211)">
<path fill-rule="evenodd" clip-rule="evenodd" d="M10.0077 0C4.4806 0 0 4.48059 0 10.0077V281.063C7.28136 281.063 13.184 286.457 13.184 293.11C13.184 299.764 7.28136 305.157 0 305.157V390.169C7.28136 390.169 13.184 395.563 13.184 402.216C13.184 408.87 7.28136 414.263 0 414.264V548.992C0 549.865 0.111666 550.711 0.321488 551.518C2.60664 547.937 6.85547 545.53 11.7195 545.53C19.0011 545.53 24.9039 550.924 24.9039 557.577C24.9039 558.059 24.8731 558.533 24.813 559H24.9949C24.9348 558.533 24.9039 558.059 24.9039 557.577C24.9039 550.924 30.8068 545.53 38.0884 545.53C45.37 545.53 51.2729 550.924 51.2729 557.577C51.2729 558.059 51.242 558.533 51.1819 559H51.3638C51.3038 558.533 51.2729 558.059 51.2729 557.577C51.2729 550.924 57.1758 545.53 64.4574 545.53C71.7365 545.53 77.6379 550.92 77.6418 557.571C77.6457 550.92 83.5471 545.53 90.8263 545.53C98.1079 545.53 104.011 550.924 104.011 557.577C104.011 558.059 103.98 558.533 103.92 559H104.102C104.042 558.533 104.011 558.059 104.011 557.577C104.011 550.924 109.914 545.53 117.195 545.53C124.477 545.53 130.38 550.924 130.38 557.577C130.38 558.059 130.349 558.533 130.289 559H130.471C130.411 558.533 130.38 558.059 130.38 557.577C130.38 550.924 136.283 545.53 143.564 545.53C150.842 545.53 156.742 550.918 156.749 557.566C156.755 550.918 162.656 545.53 169.933 545.53C177.215 545.53 183.118 550.924 183.118 557.577C183.118 558.059 183.087 558.533 183.027 559H183.209C183.148 558.533 183.118 558.059 183.118 557.577C183.118 550.924 189.02 545.53 196.302 545.53C203.584 545.53 209.487 550.924 209.487 557.577C209.487 558.059 209.456 558.533 209.396 559H209.577C209.517 558.533 209.487 558.059 209.487 557.577C209.487 550.924 215.389 545.53 222.671 545.53C229.953 545.53 235.855 550.924 235.855 557.577C235.855 558.059 235.825 558.533 235.765 559H235.946C235.886 558.533 235.855 558.059 235.855 557.577C235.855 550.924 241.758 545.53 249.04 545.53C256.322 545.53 262.224 550.924 262.224 557.577C262.224 558.059 262.194 558.533 262.133 559H262.315C262.255 558.533 262.224 558.059 262.224 557.577C262.224 550.924 268.127 545.53 275.409 545.53C282.69 545.53 288.593 550.924 288.593 557.577C288.593 558.059 288.562 558.533 288.502 559H288.684C288.624 558.533 288.593 558.059 288.593 557.577C288.593 550.924 294.496 545.53 301.778 545.53C309.053 545.53 314.952 550.914 314.962 557.559C314.973 550.914 320.872 545.53 328.147 545.53C335.428 545.53 341.331 550.924 341.331 557.577C341.331 558.059 341.3 558.533 341.24 559H341.422C341.362 558.533 341.331 558.059 341.331 557.577C341.331 550.924 347.234 545.53 354.516 545.53C361.797 545.53 367.7 550.924 367.7 557.577C367.7 558.059 367.669 558.533 367.609 559H367.791C367.731 558.533 367.7 558.059 367.7 557.577C367.7 550.924 373.603 545.53 380.885 545.53C388.166 545.53 394.069 550.924 394.069 557.577C394.069 558.059 394.038 558.533 393.978 559H394.16C394.1 558.533 394.069 558.059 394.069 557.577C394.069 550.924 399.972 545.53 407.254 545.53C413.013 545.53 417.91 548.905 419.706 553.608C421.501 548.905 426.398 545.53 432.158 545.53C439.331 545.53 445.166 550.765 445.338 557.282C447.993 555.482 449.737 552.441 449.737 548.992V414.19C443.145 413.524 438.017 408.417 438.017 402.216C438.017 396.015 443.145 390.908 449.737 390.243V305.084C443.145 304.418 438.017 299.311 438.017 293.11C438.017 286.909 443.145 281.802 449.737 281.137V10.0077C449.737 4.4806 445.256 0 439.729 0H10.0077ZM315.053 559C314.994 558.539 314.963 558.071 314.962 557.596C314.962 558.071 314.931 558.539 314.871 559H315.053ZM156.84 559C156.78 558.538 156.749 558.069 156.749 557.593C156.748 558.069 156.717 558.538 156.658 559H156.84ZM77.5509 559C77.6105 558.536 77.6414 558.065 77.6418 557.587C77.6422 558.065 77.6731 558.537 77.7328 559H77.5509Z" fill="white"/>
</g>
<defs>
<filter id="filter0_d_52_211" x="-51.0393" y="-38.0293" width="559.822" height="669.085" filterUnits="userSpaceOnUse" color-interpolation-filters="sRGB">
<feFlood flood-opacity="0" result="BackgroundImageFix"/>
<feColorMatrix in="SourceAlpha" type="matrix" values="0 0 0 0 0 0 0 0 0 0 0 0 0 0 0 0 0 0 127 0" result="hardAlpha"/>
<feOffset dx="4" dy="17"/>
<feGaussianBlur stdDeviation="27.5"/>
<feComposite in2="hardAlpha" operator="out"/>
<feColorMatrix type="matrix" values="0 0 0 0 0 0 0 0 0 0 0 0 0 0 0 0 0 0 0.05 0"/>
<feBlend mode="normal" in2="BackgroundImageFix" result="effect1_dropShadow_52_211"/>
<feBlend mode="normal" in="SourceGraphic" in2="effect1_dropShadow_52_211" result="shape"/>
</filter>
</defs>
</svg>
