<svg width="218" height="44" viewBox="0 0 218 44" fill="none" xmlns="http://www.w3.org/2000/svg">
<circle cx="22" cy="22" r="22" fill="#FFF2E6"/>
<path d="M14.4173 25.25C13.399 25.25 12.4565 25.6075 11.709 26.2033C10.7123 26.9942 10.084 28.2183 10.084 29.5833C10.084 30.3958 10.3115 31.165 10.7123 31.815C11.4598 33.0717 12.8357 33.9167 14.4173 33.9167C15.5115 33.9167 16.5082 33.5158 17.2665 32.8333C17.6023 32.5517 17.8948 32.205 18.1223 31.815C18.5231 31.165 18.7507 30.3958 18.7507 29.5833C18.7507 27.1892 16.8115 25.25 14.4173 25.25ZM16.6598 29.1175L14.3523 31.2516C14.2007 31.3925 13.9948 31.4683 13.7998 31.4683C13.594 31.4683 13.3881 31.3925 13.2256 31.23L12.1532 30.1575C11.839 29.8434 11.839 29.3233 12.1532 29.0091C12.4673 28.695 12.9873 28.695 13.3015 29.0091L13.8215 29.5292L15.5548 27.9258C15.8798 27.6225 16.3998 27.6442 16.7032 27.9692C17.0065 28.2942 16.9848 28.8142 16.6598 29.1175Z" fill="#F49A40"/>
<path opacity="0.4" d="M30.104 23.0292H32.2923V21.4692C32.2923 19.2267 30.4615 17.3958 28.219 17.3958H15.7823C13.5398 17.3958 11.709 19.2267 11.709 21.4692V26.2033C12.4565 25.6075 13.399 25.25 14.4173 25.25C16.8115 25.25 18.7507 27.1892 18.7507 29.5833C18.7507 30.3958 18.5231 31.165 18.1223 31.815C17.8948 32.205 17.6023 32.5517 17.2665 32.8333H28.219C30.4615 32.8333 32.2923 31.0025 32.2923 28.76V27.4708H30.234C29.064 27.4708 27.9915 26.615 27.894 25.445C27.829 24.7625 28.089 24.1233 28.544 23.6792C28.9448 23.2675 29.4973 23.0292 30.104 23.0292Z" fill="#F49A40"/>
<path d="M25.0882 13.2792V17.3958H15.7823C13.5398 17.3958 11.709 19.2267 11.709 21.4692V17.4934C11.709 16.2042 12.4998 15.0558 13.7023 14.6008L22.304 11.3508C23.6473 10.8525 25.0882 11.8383 25.0882 13.2792Z" fill="#F49A40"/>
<path d="M33.4394 24.1341V26.3659C33.4394 26.9617 32.9627 27.4491 32.356 27.4708H30.2327C29.0627 27.4708 27.9902 26.615 27.8927 25.445C27.8277 24.7625 28.0877 24.1233 28.5427 23.6791C28.9435 23.2675 29.496 23.0292 30.1027 23.0292H32.356C32.9627 23.0508 33.4394 23.5383 33.4394 24.1341Z" fill="#F49A40"/>
<path d="M24.1673 22.8125H16.584C16.1398 22.8125 15.7715 22.4442 15.7715 22C15.7715 21.5558 16.1398 21.1875 16.584 21.1875H24.1673C24.6115 21.1875 24.9798 21.5558 24.9798 22C24.9798 22.4442 24.6115 22.8125 24.1673 22.8125Z" fill="#F49A40"/>
<path d="M206 23C206.552 23 207 22.5523 207 22C207 21.4477 206.552 21 206 21C205.448 21 205 21.4477 205 22C205 22.5523 205.448 23 206 23Z" stroke="#25282C" stroke-width="2" stroke-linecap="round" stroke-linejoin="round"/>
<path d="M206 16C206.552 16 207 15.5523 207 15C207 14.4477 206.552 14 206 14C205.448 14 205 14.4477 205 15C205 15.5523 205.448 16 206 16Z" stroke="#25282C" stroke-width="2" stroke-linecap="round" stroke-linejoin="round"/>
<path d="M206 30C206.552 30 207 29.5523 207 29C207 28.4477 206.552 28 206 28C205.448 28 205 28.4477 205 29C205 29.5523 205.448 30 206 30Z" stroke="#25282C" stroke-width="2" stroke-linecap="round" stroke-linejoin="round"/>
</svg>
