<svg width="27" height="27" viewBox="0 0 27 27" fill="none" xmlns="http://www.w3.org/2000/svg">
<path fill-rule="evenodd" clip-rule="evenodd" d="M12.0748 13.5074L12.0765 13.9058C12.09 15.4858 12.1844 16.8955 12.3471 17.7889C12.3471 17.805 12.5245 18.6911 12.6376 18.986C12.8151 19.4123 13.136 19.7741 13.5384 20.0034C13.8605 20.167 14.1985 20.25 14.5522 20.25C14.8303 20.237 15.2889 20.0957 15.6162 19.9773L15.8882 19.872C17.6898 19.1496 21.1338 16.7889 22.4527 15.3452L22.55 15.2443L22.984 14.7714C23.2575 14.4096 23.4021 13.9672 23.4021 13.4913C23.4021 13.065 23.2733 12.6387 23.0156 12.2942C22.9384 12.1826 22.8141 12.0394 22.7035 11.9185L22.2811 11.4721C20.8275 9.98518 17.6801 7.89956 16.0487 7.20851C16.0487 7.19364 15.0349 6.76611 14.5522 6.75H14.4878C13.7475 6.75 13.0558 7.17629 12.702 7.86529C12.6054 8.05365 12.5127 8.42263 12.4422 8.74668L12.3155 9.35855C12.1708 10.3425 12.0748 11.8518 12.0748 13.5074ZM5.01891 11.7919C4.0938 11.7919 3.34375 12.5565 3.34375 13.4995C3.34375 14.4425 4.0938 15.2071 5.01891 15.2071L9.14116 14.8391C9.8669 14.8391 10.4553 14.2406 10.4553 13.4995C10.4553 12.7597 9.8669 12.1599 9.14116 12.1599L5.01891 11.7919Z" fill="white"/>
</svg>
