<svg width="34" height="23" viewBox="0 0 34 23" fill="none" xmlns="http://www.w3.org/2000/svg">
<path fill-rule="evenodd" clip-rule="evenodd" d="M24.7081 5.78439C24.7647 5.84925 24.8639 5.89557 24.9914 5.89557C28.3914 5.89557 31.168 7.71152 31.168 9.93512V15.4386C31.168 17.6622 28.3914 19.4781 24.9914 19.4781H9.01158C5.59745 19.4781 2.83498 17.6622 2.83498 15.4386V9.93512C2.83498 7.71152 5.59745 5.89557 9.01158 5.89557C9.12491 5.89557 9.23824 5.85851 9.28074 5.78439L9.36574 5.67321C9.41458 5.60591 9.4647 5.53678 9.51559 5.4666C9.878 4.9668 10.2789 4.41386 10.5274 4.08889C11.1791 3.25504 12.284 2.79179 13.6582 2.78252H20.3306C21.7048 2.79179 22.8239 3.25504 23.4756 4.08889C23.6987 4.38073 24.0386 4.85082 24.3663 5.30391C24.4339 5.39742 24.501 5.49021 24.5664 5.58056L24.7081 5.78439ZM23.6745 9.3421C23.6745 9.80535 24.2412 10.176 24.9495 10.176C25.6578 10.176 26.2386 9.80535 26.2386 9.3421C26.2386 8.87885 25.6578 8.49898 24.9495 8.49898C24.2412 8.49898 23.6745 8.87885 23.6745 9.3421ZM14.5502 10.7781C15.216 10.3427 16.0802 10.1111 17.001 10.1111C17.9218 10.1111 18.786 10.3427 19.4376 10.7689C20.0893 11.1951 20.4434 11.7602 20.4434 12.3625C20.4293 13.604 18.8993 14.6139 17.001 14.6139C16.0802 14.6139 15.216 14.3822 14.5643 13.956C13.9127 13.5299 13.5585 12.9647 13.5585 12.3625V12.3532C13.5443 11.7695 13.8985 11.2043 14.5502 10.7781ZM20.9264 14.9382C19.9205 15.596 18.5322 16.0037 17.0022 16.0037C15.5147 16.0037 14.1264 15.6238 13.0639 14.9382C12.0156 14.2433 11.4348 13.3354 11.4348 12.3625C11.4206 11.399 12.0015 10.491 13.0498 9.79612C14.1123 9.10124 15.5147 8.72138 17.0022 8.72138C18.4897 8.72138 19.8922 9.10124 20.9405 9.78685C21.9888 10.4817 22.5697 11.399 22.5697 12.3625C22.5555 13.3724 21.9322 14.2804 20.9264 14.9382Z" fill="#FF8700"/>
</svg>
