<svg width="17" height="18" viewBox="0 0 17 18" fill="none" xmlns="http://www.w3.org/2000/svg">
<path d="M15.6978 18H0.627913C0.284654 18 0 17.7153 0 17.3721C0 17.0288 0.284654 16.7442 0.627913 16.7442H15.6978C16.0411 16.7442 16.3257 17.0288 16.3257 17.3721C16.3257 17.7153 16.0411 18 15.6978 18Z" fill="#25282C"/>
<path d="M2.80466 15.4885H1.46513C0.661401 15.4885 0 14.8271 0 14.0234V6.80656C0 6.00283 0.661401 5.34143 1.46513 5.34143H2.80466C3.60838 5.34143 4.26979 6.00283 4.26979 6.80656V14.0234C4.26979 14.8271 3.60838 15.4885 2.80466 15.4885ZM1.46513 6.58887C1.34792 6.58887 1.25583 6.68097 1.25583 6.79818V14.0234C1.25583 14.1406 1.34792 14.2327 1.46513 14.2327H2.80466C2.92187 14.2327 3.01396 14.1406 3.01396 14.0234V6.80656C3.01396 6.68935 2.92187 6.59725 2.80466 6.59725H1.46513V6.58887Z" fill="#25282C"/>
<path d="M8.83262 15.4884H7.49309C6.68936 15.4884 6.02796 14.827 6.02796 14.0233V4.13572C6.02796 3.33199 6.68936 2.67059 7.49309 2.67059H8.83262C9.63635 2.67059 10.2977 3.33199 10.2977 4.13572V14.0233C10.2977 14.827 9.63635 15.4884 8.83262 15.4884ZM7.49309 3.92642C7.37588 3.92642 7.28379 4.01851 7.28379 4.13572V14.0233C7.28379 14.1405 7.37588 14.2326 7.49309 14.2326H8.83262C8.94983 14.2326 9.04192 14.1405 9.04192 14.0233V4.13572C9.04192 4.01851 8.94983 3.92642 8.83262 3.92642H7.49309Z" fill="#25282C"/>
<path d="M14.8606 15.4885H13.5211C12.7173 15.4885 12.0559 14.8271 12.0559 14.0234V1.46513C12.0559 0.661401 12.7173 0 13.5211 0H14.8606C15.6643 0 16.3257 0.661401 16.3257 1.46513V14.0234C16.3257 14.8271 15.6643 15.4885 14.8606 15.4885ZM13.5211 1.25583C13.4038 1.25583 13.3117 1.34792 13.3117 1.46513V14.0234C13.3117 14.1406 13.4038 14.2327 13.5211 14.2327H14.8606C14.9778 14.2327 15.0699 14.1406 15.0699 14.0234V1.46513C15.0699 1.34792 14.9778 1.25583 14.8606 1.25583H13.5211Z" fill="#25282C"/>
</svg>
