<svg width="18" height="18" viewBox="0 0 18 18" fill="none" xmlns="http://www.w3.org/2000/svg">
<path d="M9.38291 17.9999C9.2406 17.9999 9.09829 17.9999 8.95597 17.9916C4.26807 17.7823 0.350323 14.0068 0.0238442 9.40265C-0.260779 5.45142 2.02457 1.75969 5.70793 0.211012C6.75433 -0.224293 7.30684 0.110557 7.54123 0.353324C7.77563 0.587719 8.10211 1.13185 7.6668 2.12803C7.28172 3.01538 7.08918 3.96134 7.09756 4.9324C7.1143 8.64087 10.1949 11.7885 13.9536 11.9391C14.4977 11.9643 15.0335 11.9224 15.5525 11.8303C16.6575 11.6294 17.118 12.0731 17.2937 12.3577C17.4695 12.6423 17.6705 13.2534 17.0008 14.1575C15.226 16.5852 12.4049 17.9999 9.38291 17.9999ZM1.27116 9.31057C1.55578 13.2953 4.95451 16.5601 9.0062 16.7359C11.7603 16.8698 14.3722 15.6141 15.9795 13.4209C16.105 13.2451 16.1636 13.1195 16.1887 13.0525C16.1134 13.0441 15.9795 13.0358 15.7702 13.0776C15.1591 13.1865 14.5229 13.2283 13.895 13.2032C9.47499 13.0274 5.85861 9.31894 5.8335 4.94914C5.8335 3.79391 6.05952 2.68053 6.51994 1.63413C6.60365 1.44996 6.62039 1.32439 6.62877 1.25742C6.55342 1.25742 6.41948 1.27416 6.20183 1.36625C3.01238 2.70565 1.03677 5.90347 1.27116 9.31057Z" fill="#25282C"/>
</svg>
