<svg width="19" height="18" viewBox="0 0 19 18" fill="none" xmlns="http://www.w3.org/2000/svg">
<path d="M9.48834 11.6113C10.9305 11.6113 12.0996 10.4422 12.0996 9C12.0996 7.55783 10.9305 6.38872 9.48834 6.38872C8.04617 6.38872 6.87706 7.55783 6.87706 9C6.87706 10.4422 8.04617 11.6113 9.48834 11.6113Z" stroke="#292D32" stroke-width="1.5" stroke-miterlimit="10" stroke-linecap="round" stroke-linejoin="round"/>
<path d="M0.783385 9.76601V8.23405C0.783385 7.32881 1.52325 6.58024 2.4372 6.58024C4.01267 6.58024 4.65679 5.46609 3.8647 4.09952C3.41208 3.31614 3.68191 2.29774 4.474 1.84512L5.97984 0.983392C6.66748 0.574291 7.55531 0.818011 7.96441 1.50565L8.06016 1.67103C8.84354 3.0376 10.1318 3.0376 10.9239 1.67103L11.0196 1.50565C11.4287 0.818011 12.3166 0.574291 13.0042 0.983392L14.51 1.84512C15.3021 2.29774 15.5719 3.31614 15.1193 4.09952C14.3272 5.46609 14.9714 6.58024 16.5468 6.58024C17.4521 6.58024 18.2006 7.3201 18.2006 8.23405V9.76601C18.2006 10.6713 17.4608 11.4198 16.5468 11.4198C14.9714 11.4198 14.3272 12.534 15.1193 13.9005C15.5719 14.6926 15.3021 15.7023 14.51 16.1549L13.0042 17.0167C12.3166 17.4258 11.4287 17.1821 11.0196 16.4944L10.9239 16.329C10.1405 14.9625 8.85225 14.9625 8.06016 16.329L7.96441 16.4944C7.55531 17.1821 6.66748 17.4258 5.97984 17.0167L4.474 16.1549C3.68191 15.7023 3.41208 14.6839 3.8647 13.9005C4.65679 12.534 4.01267 11.4198 2.4372 11.4198C1.52325 11.4198 0.783385 10.6713 0.783385 9.76601Z" stroke="#292D32" stroke-width="1.5" stroke-miterlimit="10" stroke-linecap="round" stroke-linejoin="round"/>
</svg>
