<svg width="26" height="23" viewBox="0 0 26 23" fill="none" xmlns="http://www.w3.org/2000/svg">
<path fill-rule="evenodd" clip-rule="evenodd" d="M15.2981 10.7271H18.2966C18.7513 10.7271 19.1085 10.3958 19.1085 9.99622C19.1085 9.58693 18.7513 9.26533 18.2966 9.26533H15.2981C14.8435 9.26533 14.4863 9.58693 14.4863 9.99622C14.4863 10.3958 14.8435 10.7271 15.2981 10.7271ZM21.8573 5.66065C22.5176 5.66065 22.9506 5.8653 23.3836 6.31358C23.8166 6.76185 23.8924 7.40504 23.795 7.98877L22.7666 14.3816C22.5718 15.6105 21.4027 16.5158 20.0279 16.5158H8.21794C6.77823 16.5158 5.58749 15.5228 5.46841 14.2364L4.47252 3.61319L2.83796 3.35981C2.40497 3.2916 2.10187 2.91153 2.17764 2.52173C2.25342 2.12315 2.67559 1.85906 3.11941 1.9185L5.70115 2.26835C6.0692 2.3278 6.33982 2.59969 6.37229 2.93102L6.57797 5.11394C6.61044 5.42676 6.89189 5.66065 7.23828 5.66065H21.8573ZM8.04572 18.0559C7.13643 18.0559 6.40033 18.7185 6.40033 19.5371C6.40033 20.346 7.13643 21.0086 8.04572 21.0086C8.94418 21.0086 9.68028 20.346 9.68028 19.5371C9.68028 18.7185 8.94418 18.0559 8.04572 18.0559ZM20.2227 18.0559C19.3134 18.0559 18.5773 18.7185 18.5773 19.5371C18.5773 20.346 19.3134 21.0086 20.2227 21.0086C21.1211 21.0086 21.8572 20.346 21.8572 19.5371C21.8572 18.7185 21.1211 18.0559 20.2227 18.0559Z" fill="#32A7E2"/>
</svg>
