<svg width="10" height="12" viewBox="0 0 10 12" fill="none" xmlns="http://www.w3.org/2000/svg">
<path fill-rule="evenodd" clip-rule="evenodd" d="M5 0C5.55229 5.96046e-08 6 0.447715 6 1L6 8.58579L8.29289 6.29289C8.68342 5.90237 9.31658 5.90237 9.70711 6.29289C10.0976 6.68342 10.0976 7.31658 9.70711 7.70711L5.70711 11.7071C5.51957 11.8946 5.26522 12 5 12C4.73478 12 4.48043 11.8946 4.29289 11.7071L0.292893 7.70711C-0.0976311 7.31658 -0.0976311 6.68342 0.292893 6.29289C0.683418 5.90237 1.31658 5.90237 1.70711 6.29289L4 8.58579L4 1C4 0.447715 4.44772 0 5 0Z" fill="white"/>
</svg>
