<svg width="30" height="30" viewBox="0 0 30 30" fill="none" xmlns="http://www.w3.org/2000/svg">
<path d="M17.3752 27.5001C17.1047 27.5001 16.8415 27.4124 16.6252 27.2501L11.6252 23.4376C11.4722 23.3199 11.3486 23.1683 11.264 22.9949C11.1795 22.8214 11.1362 22.6306 11.1377 22.4376V18.3501L5.13766 6.82512C5.03885 6.63439 4.99086 6.42141 4.99831 6.20673C5.00577 5.99205 5.06842 5.78291 5.18023 5.59949C5.29204 5.41607 5.44923 5.26457 5.63664 5.15958C5.82405 5.0546 6.03535 4.99968 6.25016 5.00012H23.7502C23.9671 5.00016 24.1803 5.05665 24.3688 5.16404C24.5572 5.27144 24.7145 5.42603 24.8252 5.61262C24.9349 5.80265 24.9926 6.0182 24.9926 6.23762C24.9926 6.45705 24.9349 6.6726 24.8252 6.86262L18.5752 18.3751V26.2501C18.5768 26.4831 18.5133 26.7119 18.3918 26.9106C18.2703 27.1094 18.0957 27.2703 17.8877 27.3751C17.7277 27.4528 17.5529 27.4954 17.3752 27.5001ZM13.6252 21.8251L16.1252 23.7376V18.0501C16.1244 17.8597 16.1671 17.6715 16.2502 17.5001L21.6252 7.50012H8.30016L13.4627 17.5001C13.5538 17.678 13.601 17.8752 13.6002 18.0751L13.6252 21.8251Z" fill="#1C2B38"/>
</svg>
