<svg width="17" height="18" viewBox="0 0 17 18" fill="none" xmlns="http://www.w3.org/2000/svg">
<path d="M8.23619 17.9999C7.6754 17.9999 7.10623 17.8576 6.60402 17.5647L1.63217 14.6937C0.627759 14.1078 0 13.0281 0 11.8646V6.13948C0 4.97603 0.627759 3.89628 1.63217 3.31037L6.60402 0.439431C7.60844 -0.146477 8.85558 -0.146477 9.86837 0.439431L14.8402 3.31037C15.8446 3.89628 16.4724 4.97603 16.4724 6.13948V11.8646C16.4724 13.0281 15.8446 14.1078 14.8402 14.6937L9.86837 17.5647C9.36616 17.8576 8.79699 17.9999 8.23619 17.9999ZM8.23619 1.25969C7.89302 1.25969 7.54147 1.35176 7.23178 1.52754L2.25993 4.39848C1.64054 4.75839 1.25552 5.41965 1.25552 6.13948V11.8646C1.25552 12.5761 1.64054 13.2457 2.25993 13.6056L7.23178 16.4766C7.85117 16.8365 8.62122 16.8365 9.24061 16.4766L14.2125 13.6056C14.8318 13.2457 15.2169 12.5844 15.2169 11.8646V6.13948C15.2169 5.42802 14.8318 4.75839 14.2125 4.39848L9.24061 1.52754C8.93091 1.35176 8.57937 1.25969 8.23619 1.25969Z" fill="#25282C"/>
<path d="M8.23567 8.7928C6.81275 8.7928 5.65768 7.63771 5.65768 6.21479C5.65768 4.79187 6.81275 3.63683 8.23567 3.63683C9.65859 3.63683 10.8137 4.79187 10.8137 6.21479C10.8137 7.63771 9.65859 8.7928 8.23567 8.7928ZM8.23567 4.89235C7.50747 4.89235 6.91319 5.48659 6.91319 6.21479C6.91319 6.94299 7.50747 7.53728 8.23567 7.53728C8.96387 7.53728 9.55815 6.94299 9.55815 6.21479C9.55815 5.48659 8.96387 4.89235 8.23567 4.89235Z" fill="#25282C"/>
<path d="M11.5828 13.5302C11.2396 13.5302 10.955 13.2456 10.955 12.9025C10.955 11.7474 9.73301 10.8016 8.23476 10.8016C6.7365 10.8016 5.51447 11.7474 5.51447 12.9025C5.51447 13.2456 5.22988 13.5302 4.88671 13.5302C4.54353 13.5302 4.25895 13.2456 4.25895 12.9025C4.25895 11.0527 6.04179 9.5461 8.23476 9.5461C10.4277 9.5461 12.2106 11.0527 12.2106 12.9025C12.2106 13.2456 11.926 13.5302 11.5828 13.5302Z" fill="#25282C"/>
</svg>
