<svg width="20" height="20" viewBox="0 0 20 20" fill="none" xmlns="http://www.w3.org/2000/svg">
<path d="M12.7583 15.75C11.9583 16.5833 11.0417 17.4416 10 18.3333C5.55833 14.5416 3.33333 11.2666 3.33333 8.49996C3.33333 4.34996 6.5 1.66663 10 1.66663C13.4917 1.66663 16.6583 4.34163 16.6667 8.47496L18.4083 6.73329L19.5833 7.91663L15.8333 11.6666L12.0833 7.91663L13.2583 6.74163L15 8.47496C14.9917 5.45829 12.7833 3.33329 10 3.33329C7.20833 3.33329 5 5.47496 5 8.49996C5 10.45 6.625 13.0333 10 16.1166C10.5333 15.625 11.025 15.15 11.475 14.6916C11.3284 14.4023 11.2513 14.0827 11.25 13.7583C11.25 13.2058 11.4695 12.6759 11.8602 12.2852C12.2509 11.8945 12.7808 11.675 13.3333 11.675C13.8859 11.675 14.4158 11.8945 14.8065 12.2852C15.1972 12.6759 15.4167 13.2058 15.4167 13.7583C15.4164 14.0805 15.3411 14.3983 15.1968 14.6864C15.0525 14.9746 14.8431 15.2252 14.5852 15.4184C14.3273 15.6116 14.0279 15.7422 13.7109 15.7997C13.3938 15.8573 13.0677 15.8402 12.7583 15.75Z" fill="#5C9BDE"/>
</svg>
