<svg width="17" height="18" viewBox="0 0 17 18" fill="none" xmlns="http://www.w3.org/2000/svg">
<path d="M4.8133 3.76744C4.47005 3.76744 4.18539 3.48279 4.18539 3.13954V0.627907C4.18539 0.284651 4.47005 0 4.8133 0C5.15656 0 5.44121 0.284651 5.44121 0.627907V3.13954C5.44121 3.48279 5.15656 3.76744 4.8133 3.76744Z" fill="#25282C"/>
<path d="M11.5123 3.76744C11.169 3.76744 10.8844 3.48279 10.8844 3.13954V0.627907C10.8844 0.284651 11.169 0 11.5123 0C11.8555 0 12.1402 0.284651 12.1402 0.627907V3.13954C12.1402 3.48279 11.8555 3.76744 11.5123 3.76744Z" fill="#25282C"/>
<path d="M5.23256 11.093C5.12372 11.093 5.01489 11.0679 4.91442 11.0261C4.80558 10.9842 4.72186 10.9256 4.63814 10.8502C4.48745 10.6912 4.39535 10.4819 4.39535 10.2558C4.39535 10.147 4.42047 10.0382 4.46233 9.93769C4.50419 9.83723 4.56279 9.74514 4.63814 9.66142C4.72186 9.58607 4.80558 9.52745 4.91442 9.48559C5.21582 9.36001 5.59256 9.427 5.82698 9.66142C5.97768 9.82049 6.06977 10.0382 6.06977 10.2558C6.06977 10.3061 6.0614 10.3647 6.05303 10.4233C6.04465 10.4735 6.02791 10.5237 6.00279 10.574C5.98605 10.6242 5.96094 10.6744 5.92745 10.7247C5.90233 10.7665 5.86047 10.8084 5.82698 10.8502C5.66791 11.0009 5.45024 11.093 5.23256 11.093Z" fill="#25282C"/>
<path d="M8.16214 11.093C8.0533 11.093 7.94447 11.0679 7.844 11.0261C7.73516 10.9842 7.65144 10.9256 7.56772 10.8502C7.41703 10.6912 7.32493 10.4819 7.32493 10.2558C7.32493 10.147 7.35005 10.0381 7.39191 9.93767C7.43377 9.83721 7.49237 9.74513 7.56772 9.6614C7.65144 9.58606 7.73516 9.52743 7.844 9.48557C8.1454 9.35162 8.52214 9.42699 8.75656 9.6614C8.90726 9.82047 8.99935 10.0381 8.99935 10.2558C8.99935 10.306 8.99098 10.3647 8.98261 10.4233C8.97423 10.4735 8.95749 10.5237 8.93237 10.574C8.91563 10.6242 8.89052 10.6744 8.85703 10.7247C8.83191 10.7665 8.79005 10.8084 8.75656 10.8502C8.59749 11.0009 8.37982 11.093 8.16214 11.093Z" fill="#25282C"/>
<path d="M11.0937 11.093C10.9848 11.093 10.876 11.0679 10.7755 11.0261C10.6667 10.9842 10.583 10.9256 10.4993 10.8502C10.4658 10.8084 10.4323 10.7665 10.3988 10.7247C10.3653 10.6744 10.3402 10.6242 10.3235 10.574C10.2983 10.5237 10.2816 10.4735 10.2732 10.4233C10.2648 10.3647 10.2565 10.306 10.2565 10.2558C10.2565 10.0381 10.3486 9.82047 10.4993 9.6614C10.583 9.58606 10.6667 9.52743 10.7755 9.48557C11.0853 9.35162 11.4537 9.42699 11.6881 9.6614C11.8388 9.82047 11.9309 10.0381 11.9309 10.2558C11.9309 10.306 11.9225 10.3647 11.9141 10.4233C11.9058 10.4735 11.889 10.5237 11.8639 10.574C11.8472 10.6242 11.8221 10.6744 11.7886 10.7247C11.7635 10.7665 11.7216 10.8084 11.6881 10.8502C11.529 11.0009 11.3114 11.093 11.0937 11.093Z" fill="#25282C"/>
<path d="M5.23256 14.0233C5.12372 14.0233 5.01489 13.9982 4.91442 13.9563C4.81396 13.9144 4.72186 13.8558 4.63814 13.7805C4.48745 13.6214 4.39535 13.4037 4.39535 13.1861C4.39535 13.0772 4.42047 12.9684 4.46233 12.8679C4.50419 12.7591 4.56279 12.667 4.63814 12.5916C4.94791 12.2819 5.51721 12.2819 5.82698 12.5916C5.97768 12.7507 6.06977 12.9684 6.06977 13.1861C6.06977 13.4037 5.97768 13.6214 5.82698 13.7805C5.66791 13.9312 5.45024 14.0233 5.23256 14.0233Z" fill="#25282C"/>
<path d="M8.16214 14.0233C7.94447 14.0233 7.72679 13.9312 7.56772 13.7805C7.41703 13.6214 7.32493 13.4037 7.32493 13.1861C7.32493 13.0772 7.35005 12.9684 7.39191 12.8679C7.43377 12.7591 7.49237 12.667 7.56772 12.5916C7.87749 12.2819 8.44679 12.2819 8.75656 12.5916C8.83191 12.667 8.89051 12.7591 8.93237 12.8679C8.97423 12.9684 8.99935 13.0772 8.99935 13.1861C8.99935 13.4037 8.90726 13.6214 8.75656 13.7805C8.59749 13.9312 8.37982 14.0233 8.16214 14.0233Z" fill="#25282C"/>
<path d="M11.0937 14.0233C10.876 14.0233 10.6583 13.9312 10.4993 13.7805C10.4239 13.7051 10.3653 13.6131 10.3235 13.5042C10.2816 13.4038 10.2565 13.2949 10.2565 13.1861C10.2565 13.0772 10.2816 12.9684 10.3235 12.8679C10.3653 12.7591 10.4239 12.667 10.4993 12.5917C10.6918 12.3991 10.9848 12.307 11.2528 12.3656C11.3114 12.374 11.3616 12.3907 11.4118 12.4158C11.4621 12.4326 11.5123 12.4577 11.5625 12.4912C11.6044 12.5163 11.6462 12.5582 11.6881 12.5917C11.8388 12.7507 11.9309 12.9684 11.9309 13.1861C11.9309 13.4038 11.8388 13.6214 11.6881 13.7805C11.529 13.9312 11.3114 14.0233 11.0937 14.0233Z" fill="#25282C"/>
<path d="M15.2784 7.19162H1.04586C0.702602 7.19162 0.417951 6.90697 0.417951 6.56372C0.417951 6.22046 0.702602 5.93581 1.04586 5.93581H15.2784C15.6217 5.93581 15.9063 6.22046 15.9063 6.56372C15.9063 6.90697 15.6217 7.19162 15.2784 7.19162Z" fill="#25282C"/>
<path d="M11.5116 18H4.81396C1.75814 18 0 16.2419 0 13.1861V6.06977C0 3.01396 1.75814 1.25581 4.81396 1.25581H11.5116C14.5675 1.25581 16.3256 3.01396 16.3256 6.06977V13.1861C16.3256 16.2419 14.5675 18 11.5116 18ZM4.81396 2.51163C2.41954 2.51163 1.25581 3.67535 1.25581 6.06977V13.1861C1.25581 15.5805 2.41954 16.7442 4.81396 16.7442H11.5116C13.9061 16.7442 15.0698 15.5805 15.0698 13.1861V6.06977C15.0698 3.67535 13.9061 2.51163 11.5116 2.51163H4.81396Z" fill="#25282C"/>
</svg>
