<svg width="26" height="22" viewBox="0 0 26 22" fill="none" xmlns="http://www.w3.org/2000/svg">
<path fill-rule="evenodd" clip-rule="evenodd" d="M16.427 5.53174C16.7684 5.53567 17.1105 5.53961 17.4539 5.54255C21.143 5.54255 23.8327 7.75049 23.8327 10.7995V14.716C23.8327 17.7651 21.143 19.973 17.4539 19.973C15.9761 19.9993 14.4984 20.0081 13.01 20.0081C11.5216 20.0081 10.0226 19.9993 8.54482 19.973C4.85574 19.973 2.16602 17.7651 2.16602 14.716V10.7995C2.16602 7.75049 4.85574 5.54255 8.55545 5.54255C9.94816 5.52503 11.3728 5.50751 12.8186 5.50751V5.35856C12.8186 4.754 12.2126 4.26335 11.4897 4.26335H10.4372C9.23586 4.26335 8.25777 3.45728 8.25777 2.47597C8.25777 2.11674 8.61924 1.81885 9.05512 1.81885C9.50164 1.81885 9.85248 2.11674 9.85248 2.47597C9.85248 2.73882 10.1183 2.9491 10.4372 2.9491H11.4897C13.095 2.95786 14.4027 4.03555 14.4133 5.3498V5.51627C15.0835 5.51627 15.7537 5.52398 16.427 5.53174ZM11.7571 13.4106H10.6408V14.3393C10.6408 14.6986 10.2794 14.9965 9.84348 14.9965C9.39696 14.9965 9.04613 14.6986 9.04613 14.3393V13.4106H7.91921C7.48332 13.4106 7.12186 13.1215 7.12186 12.7535C7.12186 12.3942 7.48332 12.0963 7.91921 12.0963H9.04613V11.1764C9.04613 10.8171 9.39696 10.5192 9.84348 10.5192C10.2794 10.5192 10.6408 10.8171 10.6408 11.1764V12.0963H11.7571C12.193 12.0963 12.5545 12.3942 12.5545 12.7535C12.5545 13.1215 12.193 13.4106 11.7571 13.4106ZM16.2748 11.9299H16.3811C16.817 11.9299 17.1785 11.6408 17.1785 11.2728C17.1785 10.9136 16.817 10.6157 16.3811 10.6157H16.2748C15.8283 10.6157 15.4775 10.9136 15.4775 11.2728C15.4775 11.6408 15.8283 11.9299 16.2748 11.9299ZM18.0935 14.9439H18.1998C18.6357 14.9439 18.9972 14.6547 18.9972 14.2867C18.9972 13.9275 18.6357 13.6296 18.1998 13.6296H18.0935C17.6459 13.6296 17.2962 13.9275 17.2962 14.2867C17.2962 14.6547 17.6459 14.9439 18.0935 14.9439Z" fill="#B548C6"/>
</svg>
