<svg width="218" height="44" viewBox="0 0 218 44" fill="none" xmlns="http://www.w3.org/2000/svg">
<circle cx="22" cy="22" r="22" fill="#FFEBEA"/>
<path opacity="0.4" d="M27.416 17.3958C27.2102 17.3958 27.0043 17.32 26.8418 17.1575C26.5277 16.8433 26.5277 16.3233 26.8418 16.0092L29.0627 13.7883C27.156 12.1633 24.6968 11.1667 21.9993 11.1667C16.0193 11.1667 11.166 16.02 11.166 22C11.166 27.98 16.0193 32.8333 21.9993 32.8333C27.9793 32.8333 32.8327 27.98 32.8327 22C32.8327 19.3025 31.836 16.8433 30.211 14.9367L27.9902 17.1575C27.8277 17.32 27.6218 17.3958 27.416 17.3958Z" fill="#FF4437"/>
<path d="M23.8952 21.805L22.8118 21.4258V19.0208H22.8985C23.451 19.0208 23.8952 19.5083 23.8952 20.1042C23.8952 20.5483 24.2635 20.9167 24.7077 20.9167C25.1518 20.9167 25.5202 20.5483 25.5202 20.1042C25.5202 18.6092 24.3502 17.3958 22.8985 17.3958H22.8118V17.125C22.8118 16.6808 22.4435 16.3125 21.9993 16.3125C21.5552 16.3125 21.1868 16.6808 21.1868 17.125V17.3958H20.8619C19.551 17.3958 18.4785 18.5008 18.4785 19.8658C18.4785 21.4475 19.3993 21.9567 20.1035 22.2058L21.1868 22.585V24.99H21.1002C20.5477 24.99 20.1035 24.5025 20.1035 23.9067C20.1035 23.4625 19.7352 23.0942 19.291 23.0942C18.8468 23.0942 18.4785 23.4625 18.4785 23.9067C18.4785 25.4017 19.6485 26.615 21.1002 26.615H21.1868V26.8858C21.1868 27.33 21.5552 27.6983 21.9993 27.6983C22.4435 27.6983 22.8118 27.33 22.8118 26.8858V26.615H23.1368C24.4477 26.615 25.5202 25.51 25.5202 24.145C25.5202 22.5525 24.5993 22.0433 23.8952 21.805ZM20.6343 20.6567C20.266 20.5267 20.1035 20.4508 20.1035 19.855C20.1035 19.3892 20.4502 19.01 20.8619 19.01H21.1868V20.8408L20.6343 20.6567ZM23.1368 24.9792H22.8118V23.1483L23.3644 23.3433C23.7327 23.4733 23.8952 23.5492 23.8952 24.145C23.8952 24.6 23.5485 24.9792 23.1368 24.9792Z" fill="#FF4437"/>
<path d="M33.58 10.8525C33.4933 10.6575 33.3416 10.495 33.1358 10.4083C33.0383 10.365 32.9299 10.3433 32.8216 10.3433H28.4883C28.0441 10.3433 27.6758 10.7117 27.6758 11.1558C27.6758 11.6 28.0441 11.9683 28.4883 11.9683H30.8608L29.0516 13.7775C29.4633 14.135 29.8425 14.5142 30.2 14.9258L32.0091 13.1167V15.5C32.0091 15.9442 32.3774 16.3125 32.8216 16.3125C33.2658 16.3125 33.6341 15.9442 33.6341 15.5V11.1667C33.6449 11.0583 33.6233 10.9608 33.58 10.8525Z" fill="#FF4437"/>
<path d="M206 23C206.552 23 207 22.5523 207 22C207 21.4477 206.552 21 206 21C205.448 21 205 21.4477 205 22C205 22.5523 205.448 23 206 23Z" stroke="#25282C" stroke-width="2" stroke-linecap="round" stroke-linejoin="round"/>
<path d="M206 16C206.552 16 207 15.5523 207 15C207 14.4477 206.552 14 206 14C205.448 14 205 14.4477 205 15C205 15.5523 205.448 16 206 16Z" stroke="#25282C" stroke-width="2" stroke-linecap="round" stroke-linejoin="round"/>
<path d="M206 30C206.552 30 207 29.5523 207 29C207 28.4477 206.552 28 206 28C205.448 28 205 28.4477 205 29C205 29.5523 205.448 30 206 30Z" stroke="#25282C" stroke-width="2" stroke-linecap="round" stroke-linejoin="round"/>
</svg>
