<svg width="23" height="21" viewBox="0 0 23 21" fill="none" xmlns="http://www.w3.org/2000/svg">
<path d="M10.6145 5.27563V0.860644C10.6145 0.391202 11.0055 0 11.5 0C11.9428 0 12.3179 0.328718 12.3773 0.745094L12.3855 0.860644V5.27563L17.8824 5.27597C20.6193 5.27597 22.868 7.42229 22.9942 10.0991L22.9998 10.3366V15.8862C22.9998 18.5817 20.8294 20.7943 18.1331 20.9185L17.8939 20.924H5.10596C2.36898 20.924 0.131202 18.7885 0.00556341 16.1019L0 15.8634L0 10.3252C0 7.62968 2.15958 5.40635 4.85526 5.2815L5.09446 5.27597H10.6144V12.3267L8.77443 10.5072C8.42943 10.166 7.86594 10.166 7.52094 10.5072C7.34844 10.6777 7.26794 10.9052 7.26794 11.1326C7.26794 11.3055 7.31946 11.4856 7.42839 11.6381L7.52094 11.7467L10.8674 15.0674C11.0284 15.238 11.2584 15.3289 11.4999 15.3289C11.6916 15.3289 11.8832 15.2658 12.035 15.146L12.1209 15.0674L15.4674 11.7467C15.8124 11.4056 15.8124 10.8483 15.4674 10.5072C15.1537 10.197 14.6595 10.1688 14.3131 10.4226L14.2139 10.5072L12.3854 12.3267V5.27597L10.6145 5.27563Z" fill="white"/>
</svg>
