<svg width="17" height="18" viewBox="0 0 17 18" fill="none" xmlns="http://www.w3.org/2000/svg">
<path d="M15.6977 18H0.627907C0.284651 18 0 17.7153 0 17.3721C0 17.0288 0.284651 16.7442 0.627907 16.7442H15.6977C16.0409 16.7442 16.3256 17.0288 16.3256 17.3721C16.3256 17.7153 16.0409 18 15.6977 18Z" fill="#D64BC2"/>
<path d="M2.80463 15.4884H1.46512C0.661395 15.4884 0 14.827 0 14.0233V6.80652C0 6.0028 0.661395 5.3414 1.46512 5.3414H2.80463C3.60835 5.3414 4.26975 6.0028 4.26975 6.80652V14.0233C4.26975 14.827 3.60835 15.4884 2.80463 15.4884ZM1.46512 6.58883C1.34791 6.58883 1.25581 6.68093 1.25581 6.79814V14.0233C1.25581 14.1405 1.34791 14.2326 1.46512 14.2326H2.80463C2.92184 14.2326 3.01393 14.1405 3.01393 14.0233V6.80652C3.01393 6.68931 2.92184 6.59721 2.80463 6.59721H1.46512V6.58883Z" fill="#D64BC2"/>
<path d="M8.83254 15.4884H7.49302C6.6893 15.4884 6.02791 14.827 6.02791 14.0233V4.13582C6.02791 3.3321 6.6893 2.6707 7.49302 2.6707H8.83254C9.63626 2.6707 10.2977 3.3321 10.2977 4.13582V14.0233C10.2977 14.827 9.63626 15.4884 8.83254 15.4884ZM7.49302 3.92652C7.37581 3.92652 7.28372 4.01861 7.28372 4.13582V14.0233C7.28372 14.1405 7.37581 14.2326 7.49302 14.2326H8.83254C8.94975 14.2326 9.04184 14.1405 9.04184 14.0233V4.13582C9.04184 4.01861 8.94975 3.92652 8.83254 3.92652H7.49302Z" fill="#D64BC2"/>
<path d="M14.8604 15.4884H13.5209C12.7172 15.4884 12.0558 14.827 12.0558 14.0233V1.46512C12.0558 0.661395 12.7172 0 13.5209 0H14.8604C15.6642 0 16.3256 0.661395 16.3256 1.46512V14.0233C16.3256 14.827 15.6642 15.4884 14.8604 15.4884ZM13.5209 1.25581C13.4037 1.25581 13.3116 1.34791 13.3116 1.46512V14.0233C13.3116 14.1405 13.4037 14.2326 13.5209 14.2326H14.8604C14.9777 14.2326 15.0697 14.1405 15.0697 14.0233V1.46512C15.0697 1.34791 14.9777 1.25581 14.8604 1.25581H13.5209Z" fill="#D64BC2"/>
</svg>
