<svg width="24" height="25" viewBox="0 0 24 25" fill="none" xmlns="http://www.w3.org/2000/svg">
<path d="M11 11.4583V7.29168H13V11.4583H17V13.5417H13V17.7083H11V13.5417H7V11.4583H11ZM12 22.9167C6.477 22.9167 2 18.2531 2 12.5C2 6.74689 6.477 2.08334 12 2.08334C17.523 2.08334 22 6.74689 22 12.5C22 18.2531 17.523 22.9167 12 22.9167ZM12 20.8333C14.1217 20.8333 16.1566 19.9554 17.6569 18.3926C19.1571 16.8298 20 14.7101 20 12.5C20 10.2899 19.1571 8.17026 17.6569 6.60745C16.1566 5.04465 14.1217 4.16668 12 4.16668C9.87827 4.16668 7.84344 5.04465 6.34315 6.60745C4.84285 8.17026 4 10.2899 4 12.5C4 14.7101 4.84285 16.8298 6.34315 18.3926C7.84344 19.9554 9.87827 20.8333 12 20.8333Z" fill="#303030"/>
</svg>
