<svg width="372" height="131" viewBox="0 0 372 131" fill="none" xmlns="http://www.w3.org/2000/svg">
<path d="M371.689 130.268C325.167 93.5569 217.149 31.7489 157.252 78.205C97.3551 124.661 27.6206 106.239 0.240539 91.2208" stroke="white" stroke-opacity="0.5"/>
<path d="M371.689 69.1942C325.167 32.4832 217.149 -29.3248 157.252 17.1313C97.3551 63.5874 27.6206 45.1651 0.240539 30.147" stroke="white" stroke-opacity="0.5"/>
<path d="M371.689 127.36C325.167 90.6486 217.149 28.8406 157.252 75.2967C97.3551 121.753 27.6206 103.331 0.240539 88.3125" stroke="white" stroke-opacity="0.5"/>
<path d="M371.689 124.451C325.167 87.7403 217.149 25.9324 157.252 72.3885C97.3551 118.845 27.6206 100.422 0.240539 85.4042" stroke="white" stroke-opacity="0.5"/>
<path d="M371.689 121.543C325.167 84.832 217.149 23.0241 157.252 69.4802C97.3551 115.936 27.6206 97.514 0.240539 82.4959" stroke="white" stroke-opacity="0.5"/>
<path d="M371.689 118.635C325.167 81.9237 217.149 20.1158 157.252 66.5719C97.3551 113.028 27.6206 94.6057 0.240539 79.5876" stroke="white" stroke-opacity="0.5"/>
<path d="M371.689 115.726C325.167 79.0154 217.149 17.2075 157.252 63.6636C97.3551 110.12 27.6206 91.6974 0.240539 76.6793" stroke="white" stroke-opacity="0.5"/>
<path d="M371.689 112.818C325.167 76.1071 217.149 14.2992 157.252 60.7553C97.3551 107.211 27.6206 88.7891 0.240539 73.771" stroke="white" stroke-opacity="0.5"/>
<path d="M371.689 109.91C325.167 73.1988 217.149 11.3909 157.252 57.847C97.3551 104.303 27.6206 85.8808 0.240539 70.8627" stroke="white" stroke-opacity="0.5"/>
<path d="M371.689 107.002C325.167 70.2908 217.149 8.48281 157.252 54.9389C97.3551 101.395 27.6206 82.9728 0.240539 67.9546" stroke="white" stroke-opacity="0.5"/>
<path d="M371.689 104.093C325.167 67.3825 217.149 5.57452 157.252 52.0306C97.3551 98.4867 27.6206 80.0645 0.240539 65.0463" stroke="white" stroke-opacity="0.5"/>
<path d="M371.689 101.185C325.167 64.4742 217.149 2.66622 157.252 49.1223C97.3551 95.5784 27.6206 77.1562 0.240539 62.138" stroke="white" stroke-opacity="0.5"/>
<path d="M371.689 98.2769C325.167 61.5659 217.149 -0.242079 157.252 46.214C97.3551 92.6701 27.6206 74.2479 0.240539 59.2297" stroke="white" stroke-opacity="0.5"/>
<path d="M371.689 95.3686C325.167 58.6576 217.149 -3.15038 157.252 43.3057C97.3551 89.7618 27.6206 71.3396 0.240539 56.3214" stroke="white" stroke-opacity="0.5"/>
<path d="M371.689 92.4603C325.167 55.7493 217.149 -6.05867 157.252 40.3974C97.3551 86.8535 27.6206 68.4313 0.240539 53.4131" stroke="white" stroke-opacity="0.5"/>
<path d="M371.689 89.5522C325.167 52.8412 217.149 -8.96673 157.252 37.4894C97.3551 83.9455 27.6206 65.5232 0.240539 50.5051" stroke="white" stroke-opacity="0.5"/>
<path d="M371.689 86.6439C325.167 49.9329 217.149 -11.875 157.252 34.5811C97.3551 81.0372 27.6206 62.6149 0.240539 47.5968" stroke="white" stroke-opacity="0.5"/>
<path d="M371.689 83.7356C325.167 47.0246 217.149 -14.7833 157.252 31.6728C97.3551 78.1289 27.6206 59.7066 0.240539 44.6885" stroke="white" stroke-opacity="0.5"/>
<path d="M371.689 80.8273C325.167 44.1163 217.149 -17.6916 157.252 28.7645C97.3551 75.2206 27.6206 56.7983 0.240539 41.7802" stroke="white" stroke-opacity="0.5"/>
<path d="M371.689 77.9191C325.167 41.2081 217.149 -20.5999 157.252 25.8562C97.3551 72.3123 27.6206 53.89 0.240539 38.8719" stroke="white" stroke-opacity="0.5"/>
<path d="M371.689 75.0108C325.167 38.2998 217.149 -23.5082 157.252 22.9479C97.3551 69.404 27.6206 50.9817 0.240539 35.9636" stroke="white" stroke-opacity="0.5"/>
<path d="M371.689 72.1025C325.167 35.3915 217.149 -26.4165 157.252 20.0396C97.3551 66.4957 27.6206 48.0734 0.240539 33.0553" stroke="white" stroke-opacity="0.5"/>
</svg>
