<svg width="22" height="15" viewBox="0 0 22 15" fill="none" xmlns="http://www.w3.org/2000/svg">
<path d="M15.67 8.20527C17.04 9.04107 18 10.1735 18 11.6833V14.3794H22V11.6833C22 9.72409 18.43 8.56475 15.67 8.20527ZM14 7.18972C16.21 7.18972 18 5.58102 18 3.59486C18 1.6087 16.21 0 14 0C13.53 0 13.09 0.0898713 12.67 0.215691C13.5305 1.17212 14 2.36488 14 3.59486C14 4.82484 13.5305 6.0176 12.67 6.97403C13.09 7.09985 13.53 7.18972 14 7.18972ZM8 7.18972C10.21 7.18972 12 5.58102 12 3.59486C12 1.6087 10.21 0 8 0C5.79 0 4 1.6087 4 3.59486C4 5.58102 5.79 7.18972 8 7.18972ZM8 1.79743C9.1 1.79743 10 2.60627 10 3.59486C10 4.58345 9.1 5.39229 8 5.39229C6.9 5.39229 6 4.58345 6 3.59486C6 2.60627 6.9 1.79743 8 1.79743ZM8 8.08843C5.33 8.08843 0 9.29271 0 11.6833V14.3794H16V11.6833C16 9.29271 10.67 8.08843 8 8.08843ZM14 12.582H2V11.6923C2.2 11.0452 5.3 9.88586 8 9.88586C10.7 9.88586 13.8 11.0452 14 11.6833V12.582Z" fill="#7BBCB0"/>
</svg>
