<svg width="198" height="297" viewBox="0 0 198 297" fill="none" xmlns="http://www.w3.org/2000/svg">
<circle cx="117" cy="269" r="25" fill="white" fill-opacity="0.2"/>
<circle cx="117" cy="269" r="24.5" stroke="white" stroke-opacity="0.2"/>
<path d="M17.5645 2.92243C17.2852 2.35054 16.8825 1.8323 16.379 1.39673C15.875 0.95985 15.2808 0.612671 14.6288 0.374067C13.9526 0.125668 13.2274 -0.0014774 12.4952 1.29516e-05C11.468 1.29516e-05 10.4658 0.248768 9.59485 0.718639C9.38649 0.83104 9.18855 0.954496 9.00103 1.08901C8.81351 0.954496 8.61557 0.83104 8.40721 0.718639C7.53628 0.248768 6.53408 1.29516e-05 5.50688 1.29516e-05C4.76721 1.29516e-05 4.05046 0.125312 3.3733 0.374067C2.71906 0.613609 2.12941 0.958181 1.6231 1.39673C1.11887 1.83181 0.716078 2.35017 0.43755 2.92243C0.147934 3.5176 0 4.14962 0 4.80007C0 5.41366 0.141683 6.05306 0.422965 6.7035C0.658409 7.24708 0.995947 7.81093 1.42725 8.3803C2.11066 9.28135 3.05035 10.2211 4.21715 11.1737C6.1507 12.7529 8.06551 13.8437 8.14677 13.8879L8.64057 14.168C8.85935 14.2915 9.14063 14.2915 9.35941 14.168L9.85321 13.8879C9.93447 13.8419 11.8472 12.7529 13.7828 11.1737C14.9496 10.2211 15.8893 9.28135 16.5727 8.3803C17.004 7.81093 17.3437 7.24708 17.577 6.7035C17.8583 6.05306 18 5.41366 18 4.80007C18.0021 4.14962 17.8541 3.5176 17.5645 2.92243Z" fill="white"/>
<circle cx="173" cy="269" r="25" fill="white" fill-opacity="0.2"/>
<circle cx="173" cy="269" r="24.5" stroke="white" stroke-opacity="0.2"/>
<path d="M48.3191 3.96938V0L53.1626 4.31697L57.046 7.77826L53.0936 10.714L48.3191 14.2606V10.3765C39.9368 9.81339 37 14.1368 37 14.1368C37 11.4431 37.249 8.6477 39.625 6.53095C42.3868 4.06843 46.3866 3.89417 48.3191 3.96938Z" fill="white"/>
<g filter="url(#filter0_d_27_268)">
<path d="M142 268.095C142 281.903 130.807 293.095 117 293.095C103.193 293.095 92 281.903 92 268.095C92 254.288 103.193 243.095 117 243.095C130.807 243.095 142 254.288 142 268.095Z" fill="white"/>
<path d="M141.5 268.095C141.5 281.626 130.531 292.595 117 292.595C103.469 292.595 92.5 281.626 92.5 268.095C92.5 254.564 103.469 243.595 117 243.595C130.531 243.595 141.5 254.564 141.5 268.095Z" stroke="#FFDA32"/>
</g>
<path fill-rule="evenodd" clip-rule="evenodd" d="M122.018 261.191C122.086 261.252 122.14 261.324 122.176 261.403C122.213 261.482 122.232 261.567 122.232 261.652C122.232 261.738 122.213 261.823 122.176 261.902C122.14 261.981 122.086 262.053 122.018 262.113L113.765 269.467L122.018 276.821C122.155 276.944 122.232 277.109 122.232 277.282C122.232 277.455 122.155 277.621 122.018 277.743C121.88 277.866 121.694 277.934 121.5 277.934C121.306 277.934 121.12 277.866 120.983 277.743L112.215 269.928C112.147 269.868 112.093 269.796 112.056 269.717C112.019 269.638 112 269.553 112 269.467C112 269.382 112.019 269.297 112.056 269.218C112.093 269.139 112.147 269.067 112.215 269.006L120.983 261.191C121.051 261.131 121.131 261.083 121.22 261.05C121.309 261.017 121.404 261 121.5 261C121.596 261 121.691 261.017 121.78 261.05C121.869 261.083 121.95 261.131 122.018 261.191Z" fill="#1C2B38"/>
<g filter="url(#filter1_d_27_268)">
<path d="M148 271.595C148 285.403 159.193 296.595 173 296.595C186.807 296.595 198 285.403 198 271.595C198 257.788 186.807 246.595 173 246.595C159.193 246.595 148 257.788 148 271.595Z" fill="#FFDA32"/>
</g>
<path fill-rule="evenodd" clip-rule="evenodd" d="M168.215 261.191C168.147 261.252 168.093 261.324 168.056 261.403C168.019 261.482 168 261.567 168 261.652C168 261.738 168.019 261.823 168.056 261.902C168.093 261.981 168.147 262.053 168.215 262.113L176.467 269.467L168.215 276.821C168.077 276.944 168 277.109 168 277.282C168 277.455 168.077 277.621 168.215 277.743C168.352 277.866 168.538 277.934 168.732 277.934C168.926 277.934 169.112 277.866 169.249 277.743L178.018 269.928C178.086 269.868 178.14 269.796 178.176 269.717C178.213 269.638 178.232 269.553 178.232 269.467C178.232 269.382 178.213 269.297 178.176 269.218C178.14 269.139 178.086 269.067 178.018 269.006L169.249 261.191C169.181 261.131 169.101 261.083 169.012 261.05C168.923 261.017 168.828 261 168.732 261C168.636 261 168.541 261.017 168.452 261.05C168.363 261.083 168.283 261.131 168.215 261.191Z" fill="#1C2B38"/>
<defs>
<filter id="filter0_d_27_268" x="72" y="231.095" width="90" height="90" filterUnits="userSpaceOnUse" color-interpolation-filters="sRGB">
<feFlood flood-opacity="0" result="BackgroundImageFix"/>
<feColorMatrix in="SourceAlpha" type="matrix" values="0 0 0 0 0 0 0 0 0 0 0 0 0 0 0 0 0 0 127 0" result="hardAlpha"/>
<feOffset dy="8"/>
<feGaussianBlur stdDeviation="10"/>
<feColorMatrix type="matrix" values="0 0 0 0 1 0 0 0 0 0.854902 0 0 0 0 0.196078 0 0 0 0.5 0"/>
<feBlend mode="normal" in2="BackgroundImageFix" result="effect1_dropShadow_27_268"/>
<feBlend mode="normal" in="SourceGraphic" in2="effect1_dropShadow_27_268" result="shape"/>
</filter>
<filter id="filter1_d_27_268" x="128" y="234.595" width="90" height="90" filterUnits="userSpaceOnUse" color-interpolation-filters="sRGB">
<feFlood flood-opacity="0" result="BackgroundImageFix"/>
<feColorMatrix in="SourceAlpha" type="matrix" values="0 0 0 0 0 0 0 0 0 0 0 0 0 0 0 0 0 0 127 0" result="hardAlpha"/>
<feOffset dy="8"/>
<feGaussianBlur stdDeviation="10"/>
<feColorMatrix type="matrix" values="0 0 0 0 1 0 0 0 0 0.854902 0 0 0 0 0.196078 0 0 0 0.5 0"/>
<feBlend mode="normal" in2="BackgroundImageFix" result="effect1_dropShadow_27_268"/>
<feBlend mode="normal" in="SourceGraphic" in2="effect1_dropShadow_27_268" result="shape"/>
</filter>
</defs>
</svg>
