<svg width="18" height="18" viewBox="0 0 18 18" fill="none" xmlns="http://www.w3.org/2000/svg">
<path d="M5.87678 17.9987H2.4947C0.812034 17.9987 0 17.2201 0 15.6128V2.38587C0 0.778548 0.820405 0 2.4947 0H5.87678C7.55945 0 8.37148 0.778548 8.37148 2.38587V15.6128C8.37148 17.2201 7.55108 17.9987 5.87678 17.9987ZM2.4947 1.25572C1.43152 1.25572 1.25572 1.54035 1.25572 2.38587V15.6128C1.25572 16.4583 1.43152 16.743 2.4947 16.743H5.87678C6.93996 16.743 7.11576 16.4583 7.11576 15.6128V2.38587C7.11576 1.54035 6.93996 1.25572 5.87678 1.25572H2.4947Z" fill="#292D32"/>
<path d="M15.5046 8.37148H12.1226C10.4399 8.37148 9.62786 7.62642 9.62786 6.08607V2.28542C9.62786 0.745062 10.4483 0 12.1226 0H15.5046C17.1873 0 17.9993 0.745062 17.9993 2.28542V6.0777C17.9993 7.62642 17.1789 8.37148 15.5046 8.37148ZM12.1226 1.25572C11.0008 1.25572 10.8836 1.57384 10.8836 2.28542V6.0777C10.8836 6.79765 11.0008 7.10739 12.1226 7.10739H15.5046C16.6264 7.10739 16.7436 6.78927 16.7436 6.0777V2.28542C16.7436 1.56547 16.6264 1.25572 15.5046 1.25572H12.1226Z" fill="#292D32"/>
<path d="M15.5046 17.9986H12.1226C10.4399 17.9986 9.62786 17.1782 9.62786 15.5039V12.1218C9.62786 10.4392 10.4483 9.62713 12.1226 9.62713H15.5046C17.1873 9.62713 17.9993 10.4475 17.9993 12.1218V15.5039C17.9993 17.1782 17.1789 17.9986 15.5046 17.9986ZM12.1226 10.8828C11.1347 10.8828 10.8836 11.134 10.8836 12.1218V15.5039C10.8836 16.4917 11.1347 16.7429 12.1226 16.7429H15.5046C16.4925 16.7429 16.7436 16.4917 16.7436 15.5039V12.1218C16.7436 11.134 16.4925 10.8828 15.5046 10.8828H12.1226Z" fill="#292D32"/>
</svg>
