<svg width="20" height="22" viewBox="0 0 20 22" fill="none" xmlns="http://www.w3.org/2000/svg">
<path d="M9 9.53633V5.29796H11V9.53633H15V11.6555H11V15.8939H9V11.6555H5V9.53633H9ZM10 21.1918C4.477 21.1918 0 16.448 0 10.5959C0 4.74379 4.477 0 10 0C15.523 0 20 4.74379 20 10.5959C20 16.448 15.523 21.1918 10 21.1918ZM10 19.0727C12.1217 19.0727 14.1566 18.1796 15.6569 16.5899C17.1571 15.0002 18 12.8441 18 10.5959C18 8.34775 17.1571 6.19166 15.6569 4.60196C14.1566 3.01227 12.1217 2.11918 10 2.11918C7.87827 2.11918 5.84344 3.01227 4.34315 4.60196C2.84285 6.19166 2 8.34775 2 10.5959C2 12.8441 2.84285 15.0002 4.34315 16.5899C5.84344 18.1796 7.87827 19.0727 10 19.0727Z" fill="white"/>
</svg>
