<svg width="218" height="44" viewBox="0 0 218 44" fill="none" xmlns="http://www.w3.org/2000/svg">
<circle cx="22" cy="22" r="22" fill="#FFDFF6"/>
<path opacity="0.4" d="M29.377 15.7708H30.8503C30.6445 15.4783 30.4278 15.2075 30.2003 14.9366L29.377 15.7708Z" fill="#D64BC2"/>
<path opacity="0.4" d="M29.0627 13.7883C28.7918 13.5608 28.521 13.3442 28.2285 13.1383V14.6117L29.0627 13.7883Z" fill="#D64BC2"/>
<path opacity="0.4" d="M27.416 17.3958C27.3077 17.3958 27.2102 17.3742 27.1018 17.3308C26.9068 17.2442 26.7443 17.0925 26.6577 16.8867C26.6143 16.7892 26.5927 16.6808 26.5927 16.5725V12.2392C26.5927 12.2283 26.6035 12.2175 26.6035 12.1958C25.206 11.5458 23.646 11.1667 21.9993 11.1667C16.0193 11.1667 11.166 16.02 11.166 22C11.166 27.98 16.0193 32.8333 21.9993 32.8333C27.9793 32.8333 32.8327 27.98 32.8327 22C32.8327 20.3533 32.4535 18.7933 31.7927 17.385C31.7819 17.385 31.771 17.3958 31.7493 17.3958H27.416Z" fill="#D64BC2"/>
<path d="M30.2108 14.9367L33.4067 11.7408C33.7208 11.4267 33.7208 10.9067 33.4067 10.5925C33.0925 10.2783 32.5725 10.2783 32.2583 10.5925L29.0625 13.7883C29.4742 14.1458 29.8533 14.5358 30.2108 14.9367Z" fill="#D64BC2"/>
<path d="M28.2294 12.25C28.2294 11.8058 27.8611 11.4375 27.4169 11.4375C26.9836 11.4375 26.6369 11.7842 26.6152 12.2067C27.1786 12.4775 27.7202 12.7808 28.2294 13.1383V12.25Z" fill="#D64BC2"/>
<path d="M32.5632 16.5833C32.5632 16.1392 32.1949 15.7708 31.7507 15.7708H30.8516C31.2091 16.28 31.5232 16.8217 31.7832 17.385C32.2165 17.3633 32.5632 17.0167 32.5632 16.5833Z" fill="#D64BC2"/>
<path d="M23.8952 21.805L22.8118 21.4258V19.0208H22.8985C23.451 19.0208 23.8952 19.5083 23.8952 20.1042C23.8952 20.5483 24.2635 20.9167 24.7077 20.9167C25.1518 20.9167 25.5202 20.5483 25.5202 20.1042C25.5202 18.6092 24.3502 17.3958 22.8985 17.3958H22.8118V17.125C22.8118 16.6808 22.4435 16.3125 21.9993 16.3125C21.5552 16.3125 21.1868 16.6808 21.1868 17.125V17.3958H20.8619C19.551 17.3958 18.4785 18.5008 18.4785 19.8658C18.4785 21.4475 19.3993 21.9567 20.1035 22.2058L21.1868 22.585V24.99H21.1002C20.5477 24.99 20.1035 24.5025 20.1035 23.9067C20.1035 23.4625 19.7352 23.0942 19.291 23.0942C18.8468 23.0942 18.4785 23.4625 18.4785 23.9067C18.4785 25.4017 19.6485 26.615 21.1002 26.615H21.1868V26.8858C21.1868 27.33 21.5552 27.6983 21.9993 27.6983C22.4435 27.6983 22.8118 27.33 22.8118 26.8858V26.615H23.1368C24.4477 26.615 25.5202 25.51 25.5202 24.145C25.5202 22.5525 24.5993 22.0433 23.8952 21.805ZM20.6343 20.6567C20.266 20.5267 20.1035 20.4508 20.1035 19.855C20.1035 19.3892 20.4502 19.01 20.8619 19.01H21.1868V20.8408L20.6343 20.6567ZM23.1368 24.9792H22.8118V23.1483L23.3644 23.3433C23.7327 23.4733 23.8952 23.5492 23.8952 24.145C23.8952 24.6 23.5485 24.9792 23.1368 24.9792Z" fill="#D64BC2"/>
<path d="M206 23C206.552 23 207 22.5523 207 22C207 21.4477 206.552 21 206 21C205.448 21 205 21.4477 205 22C205 22.5523 205.448 23 206 23Z" stroke="#25282C" stroke-width="2" stroke-linecap="round" stroke-linejoin="round"/>
<path d="M206 16C206.552 16 207 15.5523 207 15C207 14.4477 206.552 14 206 14C205.448 14 205 14.4477 205 15C205 15.5523 205.448 16 206 16Z" stroke="#25282C" stroke-width="2" stroke-linecap="round" stroke-linejoin="round"/>
<path d="M206 30C206.552 30 207 29.5523 207 29C207 28.4477 206.552 28 206 28C205.448 28 205 28.4477 205 29C205 29.5523 205.448 30 206 30Z" stroke="#25282C" stroke-width="2" stroke-linecap="round" stroke-linejoin="round"/>
</svg>
