<svg width="19" height="19" viewBox="0 0 19 19" fill="none" xmlns="http://www.w3.org/2000/svg">
<path d="M2.37517 2.375L5.21659 5.21642M16.6252 16.625L13.784 13.7839M10.9844 14.9028C10.5038 14.994 10.0077 15.0417 9.50054 15.0417C5.95573 15.0417 2.95507 12.7119 1.94629 9.49997C2.22092 8.6256 2.64316 7.81661 3.18381 7.10219M7.82079 7.82062C8.25058 7.39083 8.84433 7.125 9.50017 7.125C10.8118 7.125 11.8752 8.18832 11.8752 9.5C11.8752 10.1558 11.6093 10.7496 11.1796 11.1794M7.82079 7.82062L11.1796 11.1794M7.82079 7.82062L5.21659 5.21642M11.1796 11.1794L5.21659 5.21642M11.1796 11.1794L13.784 13.7839M5.21659 5.21642C6.45145 4.4203 7.92204 3.95833 9.50052 3.95833C13.0453 3.95833 16.046 6.28814 17.0548 9.50003C16.4951 11.2818 15.3225 12.7922 13.784 13.7839" stroke="#040308" stroke-opacity="0.4" stroke-width="2" stroke-linecap="round" stroke-linejoin="round"/>
</svg>
