<svg width="25" height="26" viewBox="0 0 25 26" fill="none" xmlns="http://www.w3.org/2000/svg">
<path fill-rule="evenodd" clip-rule="evenodd" d="M12.6593 17.4813L15.6193 14.4662C15.9184 14.1511 15.9184 13.6573 15.609 13.3526C15.3099 13.048 14.8252 13.048 14.5261 13.3526L12.8862 15.0335V9.96983C12.8862 9.5286 12.5459 9.18191 12.123 9.18191C11.7001 9.18191 11.3495 9.5286 11.3495 9.96983V15.0335L9.70961 13.3526C9.41051 13.048 8.92577 13.048 8.62668 13.3526C8.32758 13.6573 8.32758 14.1511 8.62668 14.4662L11.5764 17.4813C11.6486 17.5549 11.7311 17.6074 11.8239 17.6494C11.9167 17.6914 12.0199 17.7124 12.123 17.7124C12.2261 17.7124 12.319 17.6914 12.4118 17.6494C12.5046 17.6074 12.5871 17.5549 12.6593 17.4813ZM20.133 9.48196C20.3754 9.47914 20.6394 9.47607 20.8792 9.47607C21.1474 9.47607 21.3536 9.68618 21.3536 9.94882V18.3953C21.3536 21.0007 19.2703 23.1123 16.7125 23.1123H8.51317C5.82131 23.1123 3.64514 20.8956 3.64514 18.1642V6.83917C3.64514 4.23379 5.71818 2.10115 8.29658 2.10115H13.8041C14.0619 2.10115 14.2785 2.32177 14.2785 2.58441V5.9672C14.2785 7.88972 15.8255 9.46556 17.7232 9.47607C18.1591 9.47607 18.5492 9.4794 18.8896 9.48231C19.1534 9.48457 19.3874 9.48657 19.59 9.48657C19.7368 9.48657 19.9271 9.48436 20.133 9.48196ZM20.4209 7.94867C19.5741 7.95182 18.5747 7.94867 17.8559 7.94131C16.7152 7.94131 15.7756 6.98425 15.7756 5.82234V3.05307C15.7756 2.60028 16.315 2.37546 16.6224 2.70218C17.4162 3.54215 18.6311 4.82918 19.6584 5.91742C20.0753 6.35903 20.4613 6.76789 20.7757 7.10087C21.0768 7.41919 20.8561 7.94762 20.4209 7.94867Z" fill="white"/>
</svg>
